<svg width="301" height="288" viewBox="0 0 301 288" fill="none" xmlns="http://www.w3.org/2000/svg">
<g clip-path="url(#clip0_2_4250)">
<path d="M282.226 77.3159H281.133V76.589H281.497V76.2256H282.226V77.3159Z" fill="white"/>
<path d="M279.661 77.3157H278.188V76.5889H279.661V77.3157ZM276.708 77.3157H275.235V76.5889H276.708V77.3157ZM273.755 77.3157H272.283V76.5889H273.755V77.3157ZM270.81 77.3157H269.337V76.5889H270.81V77.3157ZM267.857 77.3157H266.385V76.5889H267.857V77.3157ZM264.905 77.3157H263.432V76.5889H264.905V77.3157ZM261.959 77.3157H260.487V76.5889H261.959V77.3157ZM259.007 77.3157H257.534V76.5889H259.007V77.3157ZM256.054 77.3157H254.582V76.5889H256.054V77.3157ZM253.102 77.3157H251.629V76.5889H253.102V77.3157ZM250.156 77.3157H248.684V76.5889H250.156V77.3157ZM247.204 77.3157H245.731V76.5889H247.204V77.3157ZM244.251 77.3157H242.778V76.5889H244.251V77.3157Z" fill="white"/>
<path d="M241.305 77.3159H240.212V76.2256H240.941V76.589H241.305V77.3159Z" fill="white"/>
<path d="M240.941 74.7572H240.212V73.2889H240.941V74.7572ZM240.941 71.8134H240.212V70.3451H240.941V71.8134ZM240.941 68.8769H240.212V67.4086H240.941V68.8769ZM240.941 65.933H240.212V64.4648H240.941V65.933ZM240.941 62.9892H240.212V61.5209H240.941V62.9892ZM240.941 60.0527H240.212V58.5844H240.941V60.0527ZM240.941 57.1088H240.212V55.6406H240.941V57.1088ZM240.941 54.165H240.212V52.6967H240.941V54.165ZM240.941 51.2285H240.212V49.7602H240.941V51.2285ZM240.941 48.2847H240.212V46.8091H240.941V48.2847ZM240.941 45.3408H240.212V43.8726H240.941V45.3408ZM240.941 42.397H240.212V40.9287H240.941V42.397ZM240.941 39.4605H240.212V37.9922H240.941V39.4605Z" fill="white"/>
<path d="M240.941 36.5171H240.212V35.4268H241.305V36.1536H240.941V36.5171Z" fill="white"/>
<path d="M279.661 36.1536H278.188V35.4268H279.661V36.1536ZM276.708 36.1536H275.235V35.4268H276.708V36.1536ZM273.755 36.1536H272.283V35.4268H273.755V36.1536ZM270.81 36.1536H269.337V35.4268H270.81V36.1536ZM267.857 36.1536H266.385V35.4268H267.857V36.1536ZM264.905 36.1536H263.432V35.4268H264.905V36.1536ZM261.959 36.1536H260.487V35.4268H261.959V36.1536ZM259.007 36.1536H257.534V35.4268H259.007V36.1536ZM256.054 36.1536H254.582V35.4268H256.054V36.1536ZM253.102 36.1536H251.629V35.4268H253.102V36.1536ZM250.156 36.1536H248.684V35.4268H250.156V36.1536ZM247.204 36.1536H245.731V35.4268H247.204V36.1536ZM244.251 36.1536H242.778V35.4268H244.251V36.1536Z" fill="white"/>
<path d="M282.226 36.5171H281.497V36.1536H281.133V35.4268H282.226V36.5171Z" fill="white"/>
<path d="M282.227 74.7572H281.498V73.2889H282.227V74.7572ZM282.227 71.8134H281.498V70.3451H282.227V71.8134ZM282.227 68.8769H281.498V67.4086H282.227V68.8769ZM282.227 65.933H281.498V64.4648H282.227V65.933ZM282.227 62.9892H281.498V61.5209H282.227V62.9892ZM282.227 60.0527H281.498V58.5844H282.227V60.0527ZM282.227 57.1088H281.498V55.6406H282.227V57.1088ZM282.227 54.165H281.498V52.6967H282.227V54.165ZM282.227 51.2285H281.498V49.7602H282.227V51.2285ZM282.227 48.2847H281.498V46.8164H282.227V48.2847ZM282.227 45.3408H281.498V43.8726H282.227V45.3408ZM282.227 42.397H281.498V40.9287H282.227V42.397ZM282.227 39.4605H281.498V37.9922H282.227V39.4605Z" fill="white"/>
<path d="M243.15 74.3945H238.003V79.5262H243.15V74.3945Z" fill="white"/>
<path d="M243.515 79.882H237.639V74.0234H243.515V79.882ZM238.368 79.1551H242.786V74.7503H238.368V79.1551Z" fill="white"/>
<path d="M243.15 53.8096H238.003V58.9413H243.15V53.8096Z" fill="white"/>
<path d="M243.515 59.3049H237.639V53.4463H243.515V59.3049ZM238.368 58.578H242.786V54.1732H238.368V58.578Z" fill="white"/>
<path d="M243.15 33.2246H238.003V38.3563H243.15V33.2246Z" fill="white"/>
<path d="M243.515 38.7199H237.639V32.8613H243.515V38.7199ZM238.368 37.993H242.786V33.5882H238.368V37.993Z" fill="white"/>
<path d="M284.436 74.3945H279.289V79.5262H284.436V74.3945Z" fill="white"/>
<path d="M284.801 79.882H278.925V74.0234H284.801V79.882ZM279.654 79.1551H284.072V74.7503H279.654V79.1551Z" fill="white"/>
<path d="M284.436 53.8096H279.289V58.9413H284.436V53.8096Z" fill="white"/>
<path d="M284.801 59.3049H278.925V53.4463H284.801V59.3049ZM279.654 58.578H284.072V54.1732H279.654V58.578Z" fill="white"/>
<path d="M284.436 33.2246H279.289V38.3563H284.436V33.2246Z" fill="white"/>
<path d="M284.801 38.7199H278.925V32.8613H284.801V38.7199ZM279.654 37.993H284.072V33.5882H279.654V37.993Z" fill="white"/>
<path d="M263.797 33.2246H258.65V38.3563H263.797V33.2246Z" fill="white"/>
<path d="M264.154 38.7199H258.278V32.8613H264.154V38.7199ZM259.015 37.993H263.433V33.5882H259.015V37.993Z" fill="white"/>
<path d="M263.797 74.3945H258.65V79.5262H263.797V74.3945Z" fill="white"/>
<path d="M264.154 79.882H258.278V74.0234H264.154V79.882ZM259.015 79.1551H263.433V74.7503H259.015V79.1551Z" fill="white"/>
<path d="M261.719 61.2677H253.481L250.28 70.23H253.401V71.015H247.036V70.23H248.99L259.598 41.7295H263.009L273.493 70.23H275.41V71.015H261.799V70.23H264.752L261.719 61.2677ZM253.853 60.3591H261.384L257.76 49.4924L253.853 60.3591Z" fill="white"/>
<path d="M52.6949 17.1835C52.6949 17.1835 52.5491 25.2663 47.3583 34.4394H40.0387C34.848 25.2663 34.7021 17.1835 34.7021 17.1835C42.2113 12.9967 42.4081 3.62012 42.4081 3.62012H43.1663V18.4628C42.1457 18.7026 41.4021 19.604 41.4021 20.6943C41.4021 21.959 42.43 22.9839 43.6985 22.9839C44.9671 22.9839 45.995 21.959 45.995 20.6943C45.995 19.5967 45.2441 18.7026 44.2307 18.4628V3.62012H44.9889C44.9817 3.62012 45.1785 12.9967 52.6949 17.1835Z" fill="white"/>
<path d="M49.1076 33.5527H38.2959V38.0884H49.1076V33.5527Z" fill="white"/>
<path d="M68.7918 27.8831H68.0628C68.0628 14.4869 57.1344 3.59113 43.6982 3.59113C30.2619 3.59113 19.3335 14.4942 19.3335 27.8831H18.6045C18.6045 14.0871 29.8609 2.86426 43.6982 2.86426C57.5354 2.86426 68.7918 14.0871 68.7918 27.8831Z" fill="white"/>
<path d="M68.4351 2.56543H18.4082V3.2923H68.4351V2.56543Z" fill="white"/>
<path d="M21.5426 25.3242H16.3955V30.4559H21.5426V25.3242Z" fill="white"/>
<path d="M21.9073 30.8117H16.0312V24.9531H21.9073V30.8117ZM16.7603 30.0848H21.1783V25.68H16.7603V30.0848Z" fill="white"/>
<path d="M21.5426 0.363281H16.3955V5.49498H21.5426V0.363281Z" fill="white"/>
<path d="M21.9073 5.85856H16.0312V0H21.9073V5.85856ZM16.7603 5.13169H21.1783V0.726869H16.7603V5.13169Z" fill="white"/>
<path d="M71.0006 25.3242H65.8535V30.4559H71.0006V25.3242Z" fill="white"/>
<path d="M71.3653 30.8117H65.4893V24.9531H71.3653V30.8117ZM66.2183 30.0848H70.6363V25.68H66.2183V30.0848Z" fill="white"/>
<path d="M71.0006 0.363281H65.8535V5.49498H71.0006V0.363281Z" fill="white"/>
<path d="M71.3653 5.85856H65.4893V0H71.3653V5.85856ZM66.2183 5.13169H70.6363V0.726869H66.2183V5.13169Z" fill="white"/>
<path d="M0.488281 242.229L37.9684 242.047L75.4558 241.989L150.416 241.865L225.383 241.982L262.864 242.047L300.344 242.229L262.864 242.403L225.383 242.469L150.416 242.592L75.4558 242.469L37.9684 242.403L0.488281 242.229Z" fill="#263238"/>
<path d="M150.416 288C222.944 288 281.739 282.881 281.739 276.566C281.739 270.252 222.944 265.133 150.416 265.133C77.8888 265.133 19.0938 270.252 19.0938 276.566C19.0938 282.881 77.8888 288 150.416 288Z" fill="#263238"/>
<path d="M208.616 0.654297H85.5312V123.117H208.616V0.654297Z" fill="#A6A6A6"/>
<path d="M208.696 0.654297H85.5312V8.05382H208.696V0.654297Z" fill="#263238"/>
<path d="M91.3851 4.35444C91.3851 5.20488 90.6925 5.8954 89.8395 5.8954C88.9865 5.8954 88.2939 5.20488 88.2939 4.35444C88.2939 3.504 88.9865 2.81348 89.8395 2.81348C90.6925 2.81348 91.3851 3.504 91.3851 4.35444Z" fill="white"/>
<path d="M97.6839 4.35444C97.6839 5.20488 96.9913 5.8954 96.1383 5.8954C95.2854 5.8954 94.5928 5.20488 94.5928 4.35444C94.5928 3.504 95.2854 2.81348 96.1383 2.81348C96.9913 2.81348 97.6839 3.504 97.6839 4.35444Z" fill="white"/>
<path d="M103.983 4.35444C103.983 5.20488 103.29 5.8954 102.437 5.8954C101.584 5.8954 100.892 5.20488 100.892 4.35444C100.892 3.504 101.584 2.81348 102.437 2.81348C103.29 2.81348 103.983 3.504 103.983 4.35444Z" fill="#FFC229"/>
<path d="M192.11 20.585H102.109V110.317H192.11V20.585Z" fill="white"/>
<path d="M147.056 95.6342V94.9364C164.312 94.9364 178.346 80.9369 178.346 63.7392C178.346 46.5415 164.312 32.542 147.056 32.542C129.799 32.542 115.765 46.5415 115.765 63.7392H115.065C115.065 46.149 129.42 31.8369 147.063 31.8369C164.706 31.8369 179.054 46.149 179.054 63.7392C179.054 81.3222 164.699 95.6342 147.056 95.6342Z" fill="#FFC229"/>
<path d="M117.129 63.731C117.129 64.676 116.363 65.4464 115.408 65.4464C114.46 65.4464 113.688 64.6832 113.688 63.731C113.688 62.7788 114.453 62.0156 115.408 62.0156C116.363 62.0229 117.129 62.7861 117.129 63.731Z" fill="white"/>
<path d="M115.415 65.7956C114.278 65.7956 113.345 64.8725 113.345 63.7313C113.345 62.5901 114.271 61.667 115.415 61.667C116.56 61.667 117.486 62.5901 117.486 63.7313C117.486 64.8725 116.553 65.7956 115.415 65.7956ZM115.415 62.3721C114.664 62.3721 114.052 62.9826 114.052 63.7313C114.052 64.48 114.664 65.0905 115.415 65.0905C116.166 65.0905 116.779 64.48 116.779 63.7313C116.779 62.9826 116.166 62.3721 115.415 62.3721Z" fill="#FFC229"/>
<path d="M137.447 57.1532C137.447 59.2102 135.777 60.8748 133.714 60.8748C131.651 60.8748 129.981 59.2102 129.981 57.1532C129.981 55.0962 131.651 53.4316 133.714 53.4316C135.777 53.4316 137.447 55.0962 137.447 57.1532Z" fill="#FFC229"/>
<path d="M160.397 60.8748C162.458 60.8748 164.129 59.2086 164.129 57.1532C164.129 55.0978 162.458 53.4316 160.397 53.4316C158.335 53.4316 156.664 55.0978 156.664 57.1532C156.664 59.2086 158.335 60.8748 160.397 60.8748Z" fill="#FFC229"/>
<path d="M178.703 65.4464C179.653 65.4464 180.424 64.6784 180.424 63.731C180.424 62.7836 179.653 62.0156 178.703 62.0156C177.753 62.0156 176.982 62.7836 176.982 63.731C176.982 64.6784 177.753 65.4464 178.703 65.4464Z" fill="white"/>
<path d="M178.703 65.7956C177.566 65.7956 176.633 64.8725 176.633 63.7313C176.633 62.5901 177.559 61.667 178.703 61.667C179.848 61.667 180.774 62.5901 180.774 63.7313C180.774 64.8725 179.841 65.7956 178.703 65.7956ZM178.703 62.3721C177.952 62.3721 177.34 62.9826 177.34 63.7313C177.34 64.48 177.952 65.0905 178.703 65.0905C179.454 65.0905 180.067 64.48 180.067 63.7313C180.067 62.9826 179.454 62.3721 178.703 62.3721Z" fill="#FFC229"/>
<path d="M148.776 32.1851C148.776 33.1301 148.011 33.9005 147.056 33.9005C146.108 33.9005 145.335 33.1373 145.335 32.1851C145.335 31.2402 146.1 30.4697 147.056 30.4697C148.003 30.4697 148.776 31.2402 148.776 32.1851Z" fill="white"/>
<path d="M147.056 34.2497C145.919 34.2497 144.985 33.3266 144.985 32.1854C144.985 31.0442 145.911 30.1211 147.056 30.1211C148.193 30.1211 149.126 31.0442 149.126 32.1854C149.126 33.3266 148.2 34.2497 147.056 34.2497ZM147.056 30.8262C146.305 30.8262 145.693 31.4367 145.693 32.1854C145.693 32.9341 146.305 33.5446 147.056 33.5446C147.807 33.5446 148.419 32.9341 148.419 32.1854C148.426 31.4367 147.814 30.8262 147.056 30.8262Z" fill="#FFC229"/>
<path d="M148.776 95.2701C148.776 96.215 148.011 96.9855 147.056 96.9855C146.108 96.9855 145.335 96.2223 145.335 95.2701C145.335 94.3252 146.1 93.5547 147.056 93.5547C148.003 93.5547 148.776 94.3252 148.776 95.2701Z" fill="#FFC229"/>
<path d="M153.887 99.2827C153.887 99.2827 155.556 102.844 155.25 107.954L152.057 109.51C147.829 106.61 146.035 103.106 146.035 103.106C148.419 99.6752 146.502 95.5393 146.502 95.5393L146.83 95.3794L150.008 101.863C149.615 102.183 149.484 102.735 149.717 103.215C149.987 103.767 150.657 103.993 151.211 103.724C151.765 103.455 151.991 102.786 151.722 102.234C151.488 101.754 150.971 101.521 150.475 101.638L147.296 95.1541L147.624 94.9941C147.617 95.0014 149.71 99.0501 153.887 99.2827Z" fill="#263238"/>
<path d="M155.82 107.196L151.097 109.496L152.066 111.475L156.789 109.175L155.82 107.196Z" fill="#263238"/>
<path d="M159.851 107.794H159.442V111.719H159.851V107.794Z" fill="#263238"/>
<path d="M161.615 109.553H157.678V109.96H161.615V109.553Z" fill="#263238"/>
<path d="M160.89 108.228L158.106 111.004L158.395 111.292L161.179 108.516L160.89 108.228Z" fill="#263238"/>
<path d="M158.395 108.228L158.106 108.516L160.89 111.291L161.179 111.003L158.395 108.228Z" fill="#263238"/>
<path d="M159.639 101.245C156.541 101.165 155.498 99.1515 154.58 97.3634C154.069 96.3748 153.588 95.4444 152.815 94.9938C150.337 93.5546 147.997 95.6552 147.902 95.7424L147.348 95.1464C147.377 95.1173 150.227 92.5442 153.231 94.2887C154.215 94.8629 154.747 95.8951 155.309 96.9854C156.206 98.7226 157.051 100.358 159.668 100.423L159.639 101.245Z" fill="#263238"/>
<path d="M154.061 56.3105C154.061 60.1702 150.927 63.2958 147.055 63.2958C143.184 63.2958 140.042 60.1702 140.042 56.3105H154.061Z" fill="#FFC229"/>
<path d="M74.2677 26.4004H52.8047V106.879H74.2677V26.4004Z" fill="#455A64"/>
<path d="M53.946 27.2946L53.8223 27.418L55.1471 28.7389L55.2708 28.6155L53.946 27.2946Z" fill="white"/>
<path d="M55.153 27.2963L53.8281 28.6172L53.9518 28.7405L55.2767 27.4196L55.153 27.2963Z" fill="white"/>
<path d="M71.7096 27.8932L71.5859 28.0166L72.3749 28.8028L72.4986 28.6794L71.7096 27.8932Z" fill="white"/>
<path d="M72.3766 27.2302L71.5879 28.0166L71.7116 28.14L72.5003 27.3536L72.3766 27.2302Z" fill="white"/>
<path d="M72.5788 27.8972L72.4551 28.0205L73.2438 28.8069L73.3675 28.6835L72.5788 27.8972Z" fill="white"/>
<path d="M73.2438 27.2302L72.4551 28.0166L72.5788 28.14L73.3675 27.3536L73.2438 27.2302Z" fill="white"/>
<path d="M58.7322 39.7893L57.8137 37.5651L56.166 38.8371V31.6992L61.1745 36.7437L59.0822 37.0562L60.0008 39.2659L58.7322 39.7893ZM57.9595 37.0126L58.9218 39.3313L59.5342 39.0769L58.5791 36.7728L60.4382 36.4966L56.516 32.5497V38.1247L57.9595 37.0126Z" fill="white"/>
<path d="M70.156 36.918L71.0964 39.1786L70.156 39.5638L69.2155 37.2887L67.6699 38.488V32.1279L72.1317 36.6272L70.156 36.918Z" fill="white"/>
<path d="M60.5411 45.6519L56.1865 51.2256L56.6006 51.5472L60.9552 45.9735L60.5411 45.6519Z" fill="white"/>
<path d="M58.1559 46.3527L57.0915 46.549L56.8509 47.6684L56.6103 46.549L55.5459 46.3527L56.6103 46.0911L56.8509 45.0371L57.0915 46.0911L58.1559 46.3527Z" fill="white"/>
<path d="M60.5183 44.5791L59.8913 44.6954L59.7528 45.3496L59.6143 44.6954L58.9873 44.5791L59.6143 44.4264L59.7528 43.8086L59.8986 44.4264L60.5183 44.5791Z" fill="white"/>
<path d="M61.2543 48.1114L60.897 48.1768L60.8169 48.5475L60.7367 48.1768L60.3867 48.1114L60.7367 48.0241L60.8169 47.668L60.9043 48.0241L61.2543 48.1114Z" fill="white"/>
<path d="M70.8926 65.6021L66.5381 71.1758L66.9522 71.4974L71.3067 65.9237L70.8926 65.6021Z" fill="white"/>
<path d="M70.156 49.5811L71.0964 51.8416L70.156 52.2269L69.2155 49.9518L67.6699 51.1511V44.791L72.1317 49.2903L70.156 49.5811Z" fill="white"/>
<path d="M67.2323 48.7157C66.3137 48.7157 65.592 48.3959 65.3441 47.9161C64.9723 47.1893 65.2566 45.6628 67.5385 44.4199C69.3538 43.4313 71.1619 43.8384 71.6139 44.5507C71.8034 44.856 71.8326 45.2921 71.6868 45.7646C71.4389 46.5569 70.6515 47.6326 69.1789 48.2796C68.4936 48.5848 67.8229 48.7157 67.2323 48.7157ZM69.7767 44.1728C69.1643 44.1728 68.4353 44.3327 67.7135 44.7252C65.6649 45.8373 65.3733 47.1747 65.6649 47.7562C65.9638 48.3304 67.3854 48.6939 69.0404 47.967C70.411 47.3637 71.1473 46.3534 71.3587 45.6628C71.4754 45.2849 71.4608 44.9578 71.3223 44.7397C71.1181 44.4126 70.5276 44.1728 69.7767 44.1728Z" fill="white"/>
<path d="M66.2409 49.1668C65.993 49.1668 65.7451 49.065 65.5702 48.8324C65.3733 48.5708 65.3369 48.2873 65.4681 48.0256C65.6212 47.7131 65.993 47.4877 66.3794 47.4805C66.7002 47.4805 66.9626 47.6258 67.1084 47.8875C67.3563 48.3527 67.1303 48.7816 66.7877 48.9996C66.6273 49.1087 66.4304 49.1668 66.2409 49.1668ZM65.8545 48.6217C66.0513 48.8833 66.3794 48.847 66.5981 48.7089C66.7949 48.5853 66.948 48.3454 66.795 48.062C66.6929 47.873 66.5106 47.8294 66.3794 47.8366C66.1315 47.8439 65.8764 47.9893 65.7816 48.1855C65.716 48.3236 65.7378 48.469 65.8545 48.6217Z" fill="white"/>
<path d="M67.2326 50.1039L67.0212 49.8204C67.1232 49.7405 67.2472 49.6242 67.2326 49.5079C67.2034 49.3044 66.817 49.0863 66.6348 49.0136L66.766 48.6865C66.8462 48.7156 67.5242 48.9918 67.5825 49.457C67.6117 49.6896 67.495 49.9077 67.2326 50.1039Z" fill="white"/>
<path d="M56.3264 57.8514C56.3264 57.8514 57.5877 56.6375 59.7821 56.0342L60.8975 57.1463C60.2851 59.3342 59.0749 60.5917 59.0749 60.5917C57.2887 60.0901 55.8234 61.4857 55.8234 61.4857L55.7067 61.3694L57.974 59.1088C58.1636 59.2251 58.4188 59.2033 58.5864 59.0362C58.776 58.8472 58.776 58.5346 58.5864 58.3384C58.3969 58.1494 58.0834 58.1494 57.8866 58.3384C57.7189 58.5055 57.697 58.7527 57.8137 58.9489L55.5463 61.2095L55.4297 61.0932C55.4297 61.0859 56.8295 59.6322 56.3264 57.8514Z" fill="white"/>
<path d="M59.3728 55.9012L61.0225 57.5459L61.7184 56.852L60.0688 55.2073L59.3728 55.9012Z" fill="white"/>
<path d="M72.8245 54.1162H64.2363V62.119H72.8245V54.1162Z" fill="#263238"/>
<path d="M67.3489 57.8523C67.3489 57.8523 68.6101 56.6385 70.8045 56.0352L71.92 57.1473C71.3076 59.3351 70.0974 60.5926 70.0974 60.5926C68.3112 60.0911 66.8458 61.4867 66.8458 61.4867L66.7292 61.3704L68.9965 59.1098C69.1861 59.2261 69.4412 59.2043 69.6089 59.0371C69.7985 58.8481 69.7985 58.5356 69.6089 58.3393C69.4194 58.1503 69.1059 58.1503 68.909 58.3393C68.7413 58.5065 68.7195 58.7536 68.8361 58.9499L66.5688 61.2105L66.4521 61.0942C66.4521 61.0869 67.8519 59.6332 67.3489 57.8523Z" fill="white"/>
<path d="M70.3973 55.9022L72.0469 57.5469L72.7428 56.853L71.0932 55.2083L70.3973 55.9022Z" fill="white"/>
<path d="M66.5687 61.3778C66.0438 61.3778 65.6064 61.1597 65.3731 60.789C65.1252 60.3965 64.9721 59.6478 65.6356 58.2668C65.8689 57.7798 65.9053 57.3727 65.7376 57.0747C65.446 56.5586 64.6587 56.4641 64.6514 56.4641L64.6878 56.1152C64.7243 56.1225 65.6647 56.2315 66.0438 56.9075C66.2698 57.3146 66.2407 57.8234 65.9491 58.4267C65.3585 59.6551 65.4679 60.2947 65.6647 60.6073C65.898 60.978 66.3282 61.0361 66.5687 61.0361V61.3778Z" fill="white"/>
<path d="M60.6715 65.3027V66.7274H60.635H60.533H60.1903C60.081 66.7274 60.0153 66.6693 59.9862 66.5675C59.9789 66.5166 59.9643 66.4076 59.9424 66.2259H58.7104V70.5071C58.8124 70.5217 58.8926 70.5435 58.9509 70.5507C59.0093 70.558 59.053 70.5725 59.0749 70.5725C59.0967 70.5725 59.1186 70.5798 59.1259 70.5798C59.2717 70.6161 59.3446 70.6961 59.3446 70.8415V71.3357H58.7104H57.5803H56.9534V70.8415C56.9534 70.6961 57.019 70.6161 57.1648 70.5798C57.1721 70.5798 57.1867 70.5725 57.2158 70.5725C57.2377 70.5725 57.2814 70.558 57.3398 70.5507C57.3981 70.5435 57.4783 70.5289 57.5803 70.5071V66.2186H56.3555C56.341 66.4003 56.3191 66.5166 56.3118 66.5675C56.2899 66.6693 56.2243 66.7274 56.1223 66.7274H55.7723H55.6702H55.6338V65.3027H55.7577H55.765H60.533H60.6715Z" fill="white"/>
<path d="M61.5169 82.9722H55.3711V76.8447H61.5169V82.9722ZM55.9033 82.4416H60.992V77.3681H55.9033V82.4416Z" fill="white"/>
<path d="M71.2059 101.232H65.8984V96.5H71.2059V101.232ZM66.4306 100.709H70.681V97.0233H66.4306V100.709Z" fill="white"/>
<path d="M68.29 102.628H64.5938V99.3135H68.29V102.628ZM65.126 102.105H67.7724V99.8368H65.126V102.105Z" fill="white"/>
<path d="M70.0344 97.4784L68.6992 98.8096L68.9467 99.0563L70.2818 97.7251L70.0344 97.4784Z" fill="white"/>
<path d="M70.4113 98.3895H70.0613V97.6917H69.3906V97.3428H70.4113V98.3895Z" fill="white"/>
<path d="M71.4974 82.973H65.3516V76.8455H68.224C68.3771 75.697 69.3467 74.832 70.5351 74.832C71.8182 74.832 72.868 75.8715 72.868 77.158C72.868 78.0666 72.3285 78.8952 71.5047 79.2732V82.973H71.4974ZM65.8765 82.4496H70.9725V78.917L71.1475 78.8516C71.8619 78.5899 72.3358 77.9067 72.3358 77.158C72.3358 76.1695 71.5266 75.3626 70.5351 75.3626C69.5509 75.3626 68.7562 76.1331 68.7343 77.1217L68.727 77.3761H65.8838V82.4496H65.8765Z" fill="white"/>
<path d="M69.2373 78.5612C68.3187 78.4086 68.1947 79.3681 68.1801 79.746C68.1656 80.124 67.7136 80.502 67.4365 80.5528C67.4365 80.5528 68.8582 80.9454 69.5726 80.2185C70.236 79.5498 69.8424 78.663 69.2373 78.5612Z" fill="white"/>
<path d="M72.3725 75.6245L70.076 78.859C69.9302 78.5755 69.6678 78.3648 69.3616 78.3139C69.3032 78.3066 69.2522 78.2993 69.2012 78.2993L71.104 75.6172H72.3725V75.6245Z" fill="white"/>
<path d="M60.5266 89.6136L58.9131 88.0049L55.6242 91.284L57.2377 92.8927L60.5266 89.6136Z" fill="white"/>
<path d="M61.4963 88.6507L59.8828 87.042L59.1869 87.7358L60.8004 89.3446L61.4963 88.6507Z" fill="white"/>
<path d="M55.4805 93.0392L55.6117 91.3311L55.9616 91.3529L55.8596 92.6612L57.1718 92.5667L57.201 92.9156L55.4805 93.0392Z" fill="white"/>
<path d="M70.3448 90.3141C69.6595 90.3141 69.1055 89.7617 69.1055 89.0785C69.1055 88.3952 69.6595 87.8428 70.3448 87.8428C71.0301 87.8428 71.5842 88.3952 71.5842 89.0785C71.5842 89.7617 71.0228 90.3141 70.3448 90.3141ZM70.3448 88.3734C69.9512 88.3734 69.6304 88.6932 69.6304 89.0857C69.6304 89.4782 69.9512 89.7981 70.3448 89.7981C70.7385 89.7981 71.0593 89.4782 71.0593 89.0857C71.0593 88.6932 70.7312 88.3734 70.3448 88.3734Z" fill="white"/>
<path d="M64.6514 92.2477L69.5068 89.5801L70.3379 90.0525C70.3379 90.0525 66.802 92.2113 66.1751 92.4367C65.5481 92.6693 64.6514 92.2477 64.6514 92.2477Z" fill="white"/>
<path d="M70.3234 93.0612C69.6381 93.0612 69.084 92.5088 69.084 91.8255C69.084 91.1423 69.6381 90.5898 70.3234 90.5898C71.0087 90.5898 71.5627 91.1423 71.5627 91.8255C71.5627 92.5088 71.0087 93.0612 70.3234 93.0612ZM70.3234 91.1205C69.9297 91.1205 69.6089 91.4403 69.6089 91.8328C69.6089 92.2253 69.9297 92.5451 70.3234 92.5451C70.717 92.5451 71.0378 92.2253 71.0378 91.8328C71.0378 91.4403 70.717 91.1205 70.3234 91.1205Z" fill="white"/>
<path d="M64.6299 88.6565L69.4853 91.3241L70.3164 90.8516C70.3164 90.8516 66.7806 88.6928 66.1536 88.4675C65.5339 88.2422 64.6299 88.6565 64.6299 88.6565Z" fill="white"/>
<path d="M55.4072 101.835V97.292L58.3161 99.5598L55.4072 101.835ZM55.9321 98.375V100.759L57.4558 99.5671L55.9321 98.375Z" fill="white"/>
<path d="M61.4801 97.3574V101.77L58.666 99.5671L61.4801 97.3574Z" fill="white"/>
<path d="M58.5929 101.981H58.418V101.283H58.5929V101.981ZM58.5929 100.585H58.418V99.8873H58.5929V100.585ZM58.5929 99.1822H58.418V98.4845H58.5929V99.1822ZM58.5929 97.7867H58.418V97.0889H58.5929V97.7867Z" fill="white"/>
<path d="M255.851 6.46191H211.642V32.6147H255.851V6.46191Z" fill="#455A64"/>
<path d="M213.982 8.80291L212.655 7.48001L212.779 7.35645L214.106 8.67935L213.982 8.80291Z" fill="white"/>
<path d="M212.779 8.80291L212.655 8.67935L213.982 7.35645L214.106 7.48001L212.779 8.80291Z" fill="white"/>
<path d="M253.175 7.95187L253.052 8.0752L253.84 8.86168L253.964 8.73835L253.175 7.95187Z" fill="white"/>
<path d="M253.849 7.29371L253.061 8.08008L253.184 8.20343L253.973 7.41706L253.849 7.29371Z" fill="white"/>
<path d="M254.044 7.95284L253.92 8.07617L254.709 8.86266L254.832 8.73933L254.044 7.95284Z" fill="white"/>
<path d="M254.723 7.3013L253.935 8.08789L254.058 8.21121L254.847 7.42461L254.723 7.3013Z" fill="white"/>
<path d="M219.624 10.6191H219.449V27.8023H219.624V10.6191Z" fill="white"/>
<path d="M225.982 10.6191H225.807V27.8023H225.982V10.6191Z" fill="white"/>
<path d="M216.307 12.2041C215.032 12.2041 214.463 13.2435 214.463 13.2435C214.463 13.2435 215.083 14.2902 216.307 14.2902C217.532 14.2902 218.174 13.2435 218.174 13.2435C218.174 13.2435 217.576 12.2041 216.307 12.2041ZM216.307 14.1012C215.833 14.1012 215.447 13.7233 215.447 13.2508C215.447 12.7783 215.826 12.3931 216.307 12.3931C216.781 12.3931 217.16 12.7711 217.16 13.2508C217.16 13.7233 216.774 14.1012 216.307 14.1012Z" fill="white"/>
<path d="M216.964 13.2503C216.964 13.6138 216.665 13.9118 216.3 13.9118C215.936 13.9118 215.637 13.6138 215.637 13.2503C215.637 12.8869 215.936 12.5889 216.3 12.5889C216.665 12.5889 216.964 12.8869 216.964 13.2503Z" fill="white"/>
<path d="M216.307 18.1865C215.032 18.1865 214.463 19.2259 214.463 19.2259C214.463 19.2259 215.083 20.2726 216.307 20.2726C217.532 20.2726 218.174 19.2259 218.174 19.2259C218.174 19.2259 217.576 18.1865 216.307 18.1865ZM216.307 20.0764C215.833 20.0764 215.447 19.6984 215.447 19.2259C215.447 18.7535 215.826 18.3682 216.307 18.3682C216.781 18.3682 217.16 18.7462 217.16 19.2259C217.16 19.6984 216.774 20.0764 216.307 20.0764Z" fill="white"/>
<path d="M216.964 19.2259C216.964 19.5893 216.665 19.8874 216.3 19.8874C215.936 19.8874 215.637 19.5893 215.637 19.2259C215.637 18.8625 215.936 18.5645 216.3 18.5645C216.665 18.5645 216.964 18.8625 216.964 19.2259Z" fill="white"/>
<path d="M216.307 23.8926C215.032 23.8926 214.463 24.932 214.463 24.932C214.463 24.932 215.083 25.9787 216.307 25.9787C217.532 25.9787 218.174 24.932 218.174 24.932C218.174 24.932 217.576 23.8926 216.307 23.8926ZM216.307 25.7897C215.833 25.7897 215.447 25.4117 215.447 24.9393C215.447 24.4668 215.826 24.0816 216.307 24.0816C216.781 24.0816 217.16 24.4595 217.16 24.9393C217.16 25.4117 216.774 25.7897 216.307 25.7897Z" fill="white"/>
<path d="M216.964 24.9388C216.964 25.3022 216.665 25.6002 216.3 25.6002C215.936 25.6002 215.637 25.3022 215.637 24.9388C215.637 24.5754 215.936 24.2773 216.3 24.2773C216.665 24.2773 216.964 24.5754 216.964 24.9388Z" fill="white"/>
<path d="M254.021 16.2676H213.464V16.442H254.021V16.2676Z" fill="white"/>
<path d="M254.021 22.0098H213.464V22.1842H254.021V22.0098Z" fill="white"/>
<path d="M230.691 14.4943H230.684C230.633 14.4943 230.582 14.4507 230.582 14.3925V11.674C230.582 11.6231 230.626 11.5723 230.684 11.5723C230.742 11.5723 230.786 11.6159 230.786 11.674V14.2908H232.186C232.244 14.2908 232.288 14.3344 232.288 14.3925C232.288 14.4434 232.244 14.4943 232.186 14.4943H230.691Z" fill="white"/>
<path d="M234.614 12.5461V14.3923C234.614 14.4432 234.57 14.4941 234.511 14.4941C234.46 14.4941 234.409 14.4505 234.409 14.3923V14.0871C234.234 14.3269 233.95 14.4941 233.637 14.4941C233.097 14.4941 232.667 14.0289 232.667 13.4692C232.667 12.9095 233.097 12.4443 233.637 12.4443C233.95 12.4443 234.227 12.6042 234.409 12.8441V12.5461C234.409 12.4879 234.453 12.4443 234.511 12.4443C234.57 12.4443 234.614 12.4879 234.614 12.5461ZM234.409 13.4692C234.409 13.0113 234.059 12.6406 233.637 12.6406C233.221 12.6406 232.864 13.0113 232.864 13.4692C232.864 13.9271 233.214 14.2906 233.637 14.2906C234.067 14.2906 234.409 13.9271 234.409 13.4692Z" fill="white"/>
<path d="M235.445 12.5461C235.445 12.4952 235.489 12.4516 235.54 12.4516C235.598 12.4516 235.642 12.4952 235.642 12.5461V13.6582C235.642 14.0071 235.919 14.2906 236.269 14.2906C236.619 14.2906 236.903 14.0144 236.903 13.6582V12.5461C236.903 12.5316 236.91 12.5098 236.917 12.4952C236.917 12.4879 236.925 12.4879 236.925 12.4807C236.932 12.4807 236.932 12.4734 236.932 12.4734C236.939 12.4589 236.954 12.4516 236.968 12.4516H236.976C236.983 12.4516 236.983 12.4443 236.99 12.4443H237.005H237.02C237.034 12.4516 237.056 12.4589 237.071 12.4661C237.078 12.4734 237.092 12.4879 237.092 12.5025C237.1 12.517 237.107 12.5316 237.107 12.5461V13.6582V13.6946V14.3342C237.107 14.8721 236.67 15.2937 236.13 15.2937C235.977 15.2937 235.838 15.2573 235.707 15.1992C235.663 15.1701 235.642 15.1119 235.664 15.0683C235.685 15.0175 235.744 15.0029 235.795 15.0175C235.897 15.0683 236.013 15.0974 236.13 15.0974C236.56 15.0974 236.903 14.763 236.903 14.3342V14.2034C236.75 14.3778 236.524 14.4941 236.269 14.4941C235.809 14.4868 235.438 14.1161 235.438 13.6582V12.5461H235.445Z" fill="white"/>
<path d="M237.8 13.477C237.8 12.9101 238.245 12.4521 238.799 12.4521C239.324 12.4521 239.746 12.8665 239.79 13.4043V13.4116V13.4262C239.79 13.477 239.746 13.5206 239.688 13.5206H238.004C238.026 13.964 238.376 14.3057 238.799 14.3057C239.068 14.3057 239.324 14.1603 239.462 13.935C239.491 13.8841 239.557 13.8768 239.593 13.8986C239.637 13.935 239.659 13.9931 239.63 14.044C239.455 14.3202 239.149 14.5092 238.799 14.5092C238.245 14.4947 237.8 14.0367 237.8 13.477ZM238.019 13.3099H239.571C239.506 12.9246 239.178 12.6484 238.799 12.6484C238.412 12.6484 238.091 12.9246 238.019 13.3099Z" fill="white"/>
<path d="M240.409 12.5539C240.409 12.4958 240.453 12.4521 240.511 12.4521C240.562 12.4521 240.606 12.4958 240.606 12.5539V13.0046C240.613 12.99 240.621 12.9682 240.635 12.9537C240.788 12.7138 241.065 12.4521 241.459 12.4521C241.51 12.4521 241.561 12.4958 241.561 12.5539C241.561 12.6048 241.517 12.6557 241.459 12.6557C241.189 12.6557 241.007 12.8083 240.861 12.99C240.723 13.1717 240.642 13.3825 240.613 13.4625C240.606 13.477 240.606 13.4843 240.606 13.4988V14.3929C240.606 14.451 240.562 14.4947 240.511 14.4947C240.453 14.4947 240.409 14.451 240.409 14.3929V12.5539Z" fill="white"/>
<path d="M243.822 11.8702L243.406 12.1101C243.392 12.1173 243.37 12.1246 243.355 12.1246C243.319 12.1246 243.282 12.1028 243.268 12.0737C243.239 12.0229 243.253 11.9647 243.304 11.9356L243.873 11.594C243.917 11.5722 243.99 11.5867 244.011 11.6303C244.026 11.6522 244.026 11.6812 244.026 11.703V14.3852C244.026 14.4361 243.982 14.4869 243.924 14.4869C243.873 14.4869 243.822 14.4433 243.822 14.3852V11.8702Z" fill="white"/>
<path d="M230.691 20.5119H230.684C230.633 20.5119 230.582 20.4682 230.582 20.4101V17.6916C230.582 17.6407 230.626 17.5898 230.684 17.5898C230.742 17.5898 230.786 17.6335 230.786 17.6916V20.3083H232.186C232.244 20.3083 232.288 20.3519 232.288 20.4101C232.288 20.461 232.244 20.5119 232.186 20.5119H230.691Z" fill="white"/>
<path d="M234.614 18.5637V20.4099C234.614 20.4608 234.57 20.5117 234.511 20.5117C234.46 20.5117 234.409 20.4681 234.409 20.4099V20.1046C234.234 20.3445 233.95 20.5117 233.637 20.5117C233.097 20.5117 232.667 20.0465 232.667 19.4868C232.667 18.9271 233.097 18.4619 233.637 18.4619C233.95 18.4619 234.227 18.6218 234.409 18.8617V18.5637C234.409 18.5055 234.453 18.4619 234.511 18.4619C234.57 18.4619 234.614 18.5055 234.614 18.5637ZM234.409 19.4868C234.409 19.0289 234.059 18.6582 233.637 18.6582C233.221 18.6582 232.864 19.0289 232.864 19.4868C232.864 19.9447 233.214 20.3082 233.637 20.3082C234.067 20.3082 234.409 19.9447 234.409 19.4868Z" fill="white"/>
<path d="M235.445 18.5637C235.445 18.5128 235.489 18.4692 235.54 18.4692C235.598 18.4692 235.642 18.5128 235.642 18.5637V19.6758C235.642 20.0247 235.919 20.3082 236.269 20.3082C236.619 20.3082 236.903 20.032 236.903 19.6758V18.5637C236.903 18.5491 236.91 18.5273 236.917 18.5128C236.917 18.5055 236.925 18.5055 236.925 18.4983C236.932 18.4983 236.932 18.491 236.932 18.491C236.939 18.4765 236.954 18.4692 236.968 18.4692H236.976C236.983 18.4692 236.983 18.4619 236.99 18.4619H237.005H237.02C237.034 18.4692 237.056 18.4765 237.071 18.4837C237.078 18.491 237.092 18.5055 237.092 18.5201C237.1 18.5346 237.107 18.5491 237.107 18.5637V19.6758V19.7121V20.3518C237.107 20.8824 236.67 21.3112 236.13 21.3112C235.977 21.3112 235.838 21.2749 235.707 21.2167C235.663 21.1877 235.642 21.1295 235.664 21.0859C235.685 21.035 235.744 21.0205 235.795 21.035C235.897 21.0859 236.013 21.115 236.13 21.115C236.56 21.115 236.903 20.7806 236.903 20.3518V20.2209C236.75 20.3954 236.524 20.5117 236.269 20.5117C235.809 20.5044 235.438 20.1337 235.438 19.6758V18.5637H235.445Z" fill="white"/>
<path d="M237.8 19.4946C237.8 18.9277 238.245 18.4697 238.799 18.4697C239.324 18.4697 239.746 18.884 239.79 19.4219V19.4292V19.4437C239.79 19.4946 239.746 19.5382 239.688 19.5382H238.004C238.026 19.9816 238.376 20.3232 238.799 20.3232C239.068 20.3232 239.324 20.1779 239.462 19.9525C239.491 19.9017 239.557 19.8944 239.593 19.9162C239.637 19.9525 239.659 20.0107 239.63 20.0616C239.455 20.3378 239.149 20.5268 238.799 20.5268C238.245 20.5122 237.8 20.0543 237.8 19.4946ZM238.019 19.3274H239.571C239.506 18.9422 239.178 18.666 238.799 18.666C238.412 18.666 238.091 18.9422 238.019 19.3274Z" fill="white"/>
<path d="M240.409 18.5715C240.409 18.5133 240.453 18.4697 240.511 18.4697C240.562 18.4697 240.606 18.5133 240.606 18.5715V19.0221C240.613 19.0076 240.621 18.9858 240.635 18.9713C240.788 18.7314 241.065 18.4697 241.459 18.4697C241.51 18.4697 241.561 18.5133 241.561 18.5715C241.561 18.6224 241.517 18.6733 241.459 18.6733C241.189 18.6733 241.007 18.8259 240.861 19.0076C240.723 19.1893 240.642 19.4001 240.613 19.4801C240.606 19.4946 240.606 19.5019 240.606 19.5164V20.4105C240.606 20.4686 240.562 20.5122 240.511 20.5122C240.453 20.5122 240.409 20.4686 240.409 20.4105V18.5715Z" fill="white"/>
<path d="M243.34 20.3301L244.711 19.1017C244.871 18.9491 244.959 18.7528 244.959 18.542C244.959 18.3603 244.893 18.1859 244.762 18.0405C244.616 17.8806 244.412 17.7934 244.208 17.7934C244.026 17.7934 243.843 17.8588 243.698 17.9824L243.552 18.1132C243.508 18.1568 243.442 18.1495 243.413 18.1059C243.37 18.0623 243.377 17.9969 243.421 17.9678L243.566 17.837C243.749 17.6771 243.982 17.5898 244.215 17.5898C244.47 17.5898 244.733 17.6916 244.915 17.9024C245.083 18.0841 245.163 18.3167 245.163 18.542C245.163 18.8037 245.061 19.0581 244.85 19.2544L243.676 20.3083H245.061C245.112 20.3083 245.163 20.3519 245.163 20.4101C245.163 20.461 245.119 20.5119 245.061 20.5119H243.428H243.413C243.384 20.5119 243.355 20.5046 243.34 20.4828C243.297 20.4319 243.297 20.3738 243.34 20.3301Z" fill="white"/>
<path d="M230.691 26.5314H230.684C230.633 26.5314 230.582 26.4878 230.582 26.4296V23.7111C230.582 23.6603 230.626 23.6094 230.684 23.6094C230.742 23.6094 230.786 23.653 230.786 23.7111V26.3279H232.186C232.244 26.3279 232.288 26.3715 232.288 26.4296C232.288 26.4805 232.244 26.5314 232.186 26.5314H230.691Z" fill="white"/>
<path d="M234.614 24.5832V26.4295C234.614 26.4803 234.57 26.5312 234.511 26.5312C234.46 26.5312 234.409 26.4876 234.409 26.4295V26.1242C234.234 26.364 233.95 26.5312 233.637 26.5312C233.097 26.5312 232.667 26.066 232.667 25.5063C232.667 24.9466 233.097 24.4814 233.637 24.4814C233.95 24.4814 234.227 24.6414 234.409 24.8812V24.5832C234.409 24.5251 234.453 24.4814 234.511 24.4814C234.57 24.4814 234.614 24.5251 234.614 24.5832ZM234.409 25.5063C234.409 25.0484 234.059 24.6777 233.637 24.6777C233.221 24.6777 232.864 25.0484 232.864 25.5063C232.864 25.9643 233.214 26.3277 233.637 26.3277C234.067 26.3277 234.409 25.9643 234.409 25.5063Z" fill="white"/>
<path d="M235.445 24.5832C235.445 24.5323 235.489 24.4887 235.54 24.4887C235.598 24.4887 235.642 24.5323 235.642 24.5832V25.6953C235.642 26.0442 235.919 26.3277 236.269 26.3277C236.619 26.3277 236.903 26.0515 236.903 25.6953V24.5832C236.903 24.5687 236.91 24.5469 236.917 24.5323C236.917 24.5251 236.925 24.5251 236.925 24.5178C236.932 24.5178 236.932 24.5105 236.932 24.5105C236.939 24.496 236.954 24.4887 236.968 24.4887H236.976C236.983 24.4887 236.983 24.4814 236.99 24.4814H237.005H237.02C237.034 24.4887 237.056 24.496 237.071 24.5033C237.078 24.5105 237.092 24.5251 237.092 24.5396C237.1 24.5541 237.107 24.5687 237.107 24.5832V25.6953V25.7317V26.3713C237.107 26.9019 236.67 27.3308 236.13 27.3308C235.977 27.3308 235.838 27.2944 235.707 27.2363C235.663 27.2072 235.642 27.1491 235.664 27.1054C235.685 27.0546 235.744 27.04 235.795 27.0546C235.897 27.1054 236.013 27.1345 236.13 27.1345C236.56 27.1345 236.903 26.8002 236.903 26.3786V26.2477C236.75 26.4222 236.524 26.5385 236.269 26.5385C235.809 26.5312 235.438 26.1605 235.438 25.7026V24.5832H235.445Z" fill="white"/>
<path d="M237.8 25.5132C237.8 24.9462 238.245 24.4883 238.799 24.4883C239.324 24.4883 239.746 24.9026 239.79 25.4405V25.455C239.79 25.5059 239.746 25.5495 239.688 25.5495H238.004C238.026 25.9929 238.376 26.3345 238.799 26.3345C239.068 26.3345 239.324 26.1892 239.462 25.9638C239.491 25.9129 239.557 25.9057 239.593 25.9275C239.637 25.9638 239.659 26.022 239.63 26.0729C239.455 26.3491 239.149 26.5381 238.799 26.5381C238.245 26.5308 237.8 26.0729 237.8 25.5132ZM238.019 25.346H239.571C239.506 24.9607 239.178 24.6845 238.799 24.6845C238.412 24.6845 238.091 24.9607 238.019 25.346Z" fill="white"/>
<path d="M240.409 24.59C240.409 24.5319 240.453 24.4883 240.511 24.4883C240.562 24.4883 240.606 24.5319 240.606 24.59V25.0407C240.613 25.0262 240.621 25.0044 240.635 24.9898C240.788 24.75 241.065 24.4883 241.459 24.4883C241.51 24.4883 241.561 24.5319 241.561 24.59C241.561 24.6409 241.517 24.6918 241.459 24.6918C241.189 24.6918 241.007 24.8444 240.861 25.0262C240.723 25.2079 240.642 25.4187 240.613 25.4986C240.606 25.5132 240.606 25.5204 240.606 25.535V26.429C240.606 26.4872 240.562 26.5308 240.511 26.5308C240.453 26.5308 240.409 26.4872 240.409 26.429V24.59Z" fill="white"/>
<path d="M245.112 23.7905L244.353 24.5683C244.536 24.6046 244.711 24.6919 244.856 24.8372C245.046 25.0262 245.148 25.2806 245.148 25.535C245.148 25.7894 245.053 26.0438 244.856 26.2328C244.667 26.4218 244.412 26.5236 244.157 26.5236C243.909 26.5236 243.653 26.4291 243.457 26.2328C243.413 26.1965 243.413 26.1311 243.457 26.0875C243.493 26.0438 243.559 26.0438 243.602 26.0875C243.756 26.2401 243.952 26.3128 244.157 26.3128C244.361 26.3128 244.557 26.2401 244.711 26.0875C244.864 25.9348 244.944 25.7313 244.944 25.535C244.944 25.3315 244.871 25.1353 244.711 24.9826C244.557 24.83 244.361 24.75 244.157 24.75C244.12 24.75 244.091 24.7355 244.076 24.7064H244.069C244.025 24.6628 244.025 24.5974 244.069 24.5538L244.798 23.8051H243.675C243.617 23.8051 243.573 23.7615 243.573 23.7033C243.573 23.6452 243.617 23.6016 243.675 23.6016H245.046C245.104 23.6016 245.148 23.6452 245.148 23.7033C245.148 23.7179 245.141 23.7397 245.133 23.7469C245.133 23.7687 245.126 23.7833 245.112 23.7905Z" fill="white"/>
<path d="M227.731 16.7471H226.419V21.7116H227.731V16.7471Z" fill="#455A64"/>
<path d="M227.731 22.4531H226.419V27.4176H227.731V22.4531Z" fill="#263238"/>
<path d="M227.731 10.7646H226.419V15.7292H227.731V10.7646Z" fill="#FFC229"/>
<path d="M221.17 30.499H213.464V30.6735H221.17V30.499Z" fill="white"/>
<path d="M224.065 12.9453H221.396V15.1841H224.065V12.9453Z" fill="white"/>
<path d="M223.744 13.1927H223.43V12.6039C223.43 11.957 223.204 11.6299 222.752 11.6299C222.016 11.6299 222.009 12.4949 222.009 12.5313V13.1927H221.695V12.5313C221.695 11.9498 222.023 11.3174 222.745 11.3174C223.387 11.3174 223.737 11.7753 223.737 12.6039V13.1927H223.744Z" fill="white"/>
<path d="M250.471 14.6101C249.72 14.6101 249.107 13.9995 249.107 13.2508C249.107 12.5022 249.72 11.8916 250.471 11.8916C251.222 11.8916 251.834 12.5022 251.834 13.2508C251.834 13.9995 251.222 14.6101 250.471 14.6101ZM250.471 12.066C249.815 12.066 249.282 12.5967 249.282 13.2508C249.282 13.905 249.815 14.4356 250.471 14.4356C251.127 14.4356 251.659 13.905 251.659 13.2508C251.659 12.5967 251.12 12.066 250.471 12.066Z" fill="white"/>
<path d="M250.471 20.5847C249.72 20.5847 249.107 19.9741 249.107 19.2255C249.107 18.4768 249.72 17.8662 250.471 17.8662C251.222 17.8662 251.834 18.4768 251.834 19.2255C251.834 19.9741 251.222 20.5847 250.471 20.5847ZM250.471 18.0407C249.815 18.0407 249.282 18.5713 249.282 19.2255C249.282 19.8796 249.815 20.4103 250.471 20.4103C251.127 20.4103 251.659 19.8796 251.659 19.2255C251.659 18.5713 251.12 18.0407 250.471 18.0407Z" fill="white"/>
<path d="M250.471 26.5603C249.72 26.5603 249.107 25.9497 249.107 25.201C249.107 24.4524 249.72 23.8418 250.471 23.8418C251.222 23.8418 251.834 24.4524 251.834 25.201C251.834 25.957 251.222 26.5603 250.471 26.5603ZM250.471 24.0162C249.815 24.0162 249.282 24.5469 249.282 25.201C249.282 25.8552 249.815 26.3858 250.471 26.3858C251.127 26.3858 251.659 25.8552 251.659 25.201C251.659 24.5469 251.12 24.0162 250.471 24.0162Z" fill="white"/>
<path d="M173.541 186.405L171.66 197.679L158.887 266.448H156.824L166.112 197.679L167.49 186.405H173.541Z" fill="white"/>
<path d="M167.49 186.405H173.541L171.66 197.679H166.112L167.49 186.405Z" fill="#A6A6A6"/>
<path d="M213.652 266.448H211.589L198.816 197.679L196.936 186.405H202.994L204.364 197.679L213.652 266.448Z" fill="white"/>
<path d="M202.994 186.405L204.364 197.679H198.816L196.936 186.405H202.994Z" fill="#A6A6A6"/>
<path d="M251.957 266.448H249.901L237.128 197.679L235.247 186.405H241.298L242.669 197.679L251.957 266.448Z" fill="white"/>
<path d="M242.669 197.679H237.128L235.247 186.405H241.298L242.669 197.679Z" fill="#A6A6A6"/>
<path d="M248.698 191.704H155.104V181.87H190.141L201.915 99.0283H245.126L248.698 191.704Z" fill="white"/>
<path d="M243.245 181.869H155.104V191.704H243.595L243.245 181.869Z" fill="white"/>
<path d="M248.698 191.704H243.595L240.271 99.0283H245.126L248.698 191.704Z" fill="white"/>
<path d="M153.493 279.306C155.308 279.473 204.635 267.705 206.188 266.114C206.378 265.939 205.401 261.469 203.972 255.37L203.943 255.247C203.046 251.38 188.64 220.132 188.64 220.132L156.664 229.058L171.223 258.053C171.223 258.053 165.209 262.392 160.054 266.513C160.047 266.521 160.04 266.521 160.047 266.528C156.861 269.057 154.12 271.332 153.537 272.067C152.027 273.986 151.685 279.154 153.493 279.306Z" fill="#D3766A"/>
<path d="M153.493 279.306C155.301 279.481 204.628 267.705 206.188 266.113C206.378 265.932 205.401 261.469 203.972 255.37L203.943 255.254C203.615 253.815 201.398 248.559 198.752 242.541C193.488 243.958 174.628 249.061 167.775 251.176L171.223 258.045C171.223 258.045 165.209 262.385 160.054 266.506C160.054 266.513 160.047 266.513 160.047 266.52C156.861 269.05 154.113 271.325 153.537 272.059C152.027 273.985 151.677 279.153 153.493 279.306Z" fill="white"/>
<path d="M153.333 279.539C155.199 279.699 204.563 267.793 206.159 266.157C206.764 265.539 205.664 257.769 202.959 249.541L171.143 257.253C171.143 257.253 154.9 270.097 153.347 272.081C151.795 274.066 151.466 279.379 153.333 279.539Z" fill="#FFC229"/>
<path d="M153.559 277.401C161.782 275.206 195.173 267.109 203.469 265.561C203.535 265.546 203.549 265.59 203.484 265.611C195.377 267.966 161.928 275.788 153.595 277.532C153.42 277.576 153.384 277.445 153.559 277.401Z" fill="#263238"/>
<path d="M156.082 269.551C158.028 268.999 160.172 269.464 161.52 270.373C162.818 271.245 164.079 272.604 164.436 274.334C164.444 274.385 164.356 274.407 164.334 274.356C163.08 271.238 159.442 269.115 156.103 269.653C156.038 269.66 156.016 269.566 156.082 269.551Z" fill="#263238"/>
<path d="M168.737 258.707C172.04 257.864 176.159 258.103 178.871 260.306C178.973 260.393 178.857 260.538 178.74 260.509C175.372 259.695 172.251 259.23 168.774 259.121C168.533 259.121 168.504 258.765 168.737 258.707Z" fill="#263238"/>
<path d="M166.426 260.32C169.729 259.477 173.848 259.717 176.567 261.919C176.669 262.006 176.545 262.152 176.436 262.123C173.068 261.309 169.947 260.843 166.47 260.734C166.222 260.727 166.186 260.378 166.426 260.32Z" fill="#263238"/>
<path d="M164.108 261.926C167.41 261.083 171.529 261.323 174.241 263.526C174.343 263.613 174.219 263.758 174.11 263.729C170.742 262.915 167.622 262.45 164.144 262.341C163.903 262.341 163.867 261.992 164.108 261.926Z" fill="#263238"/>
<path d="M161.789 263.54C165.092 262.697 169.211 262.936 171.923 265.139C172.025 265.226 171.908 265.371 171.792 265.342C168.424 264.528 165.303 264.063 161.826 263.954C161.585 263.947 161.556 263.598 161.789 263.54Z" fill="#263238"/>
<path d="M199.467 258.234C203.185 257.347 204.57 263.111 200.845 263.998C197.127 264.885 195.742 259.121 199.467 258.234Z" fill="#263238"/>
<path d="M164.458 255.538C166.805 257.406 169.875 258.198 172.63 259.252C172.915 259.361 173.148 259.099 173.163 258.845C173.221 258.838 173.265 258.794 173.243 258.729C172.368 255.93 170.421 252.936 168.183 251.009C166.798 249.817 164.363 248.974 163.022 250.762C161.753 252.449 163.087 254.447 164.458 255.538ZM163.641 252.834C163.102 249.163 167.017 251.14 168.001 252.056C168.635 252.645 169.204 253.321 169.751 253.99C170.895 255.392 171.814 256.933 172.805 258.431C171.486 257.827 170.122 257.348 168.781 256.788C167.192 256.141 163.94 254.862 163.641 252.834Z" fill="#263238"/>
<path d="M184.492 253.779C183.712 251.685 181.131 251.816 179.469 252.572C176.779 253.793 174.074 256.119 172.441 258.569C172.405 258.627 172.434 258.685 172.485 258.707C172.427 258.954 172.572 259.274 172.879 259.252C175.817 259.005 178.995 259.107 181.766 257.973C183.391 257.297 185.236 255.763 184.492 253.779ZM177.26 257.965C175.817 258.118 174.373 258.205 172.937 258.416C174.307 257.253 175.627 256.032 177.122 255.007C177.836 254.52 178.572 254.026 179.345 253.641C180.548 253.037 184.864 252.238 183.311 255.61C182.458 257.457 178.981 257.776 177.26 257.965Z" fill="#263238"/>
<path d="M167.614 255.399L201.872 245.157C201.872 245.157 173.636 186.492 174.526 183.504C175.124 181.513 217.452 181.375 229.86 170.268C242.699 158.769 232.703 136.192 232.703 136.192L197.111 136.011C197.111 136.011 197.724 143.418 196.361 144.566C195.464 145.336 146.8 149.603 137.483 167.441C129.026 183.628 167.614 255.399 167.614 255.399Z" fill="#263238"/>
<path d="M174.519 183.505C174.365 184.006 175.051 186.114 176.305 189.269L150.723 220.604C141.602 199.867 133.021 175.96 137.476 167.441C146.8 149.604 195.457 145.33 196.361 144.566C197.709 143.418 197.104 136.004 197.104 136.004L219.697 136.12L182.152 182.102C177.632 182.596 174.672 182.981 174.519 183.505Z" fill="#263238"/>
<path d="M166.762 248.174C167.651 247.731 168.621 247.455 169.554 247.142C170.538 246.808 171.53 246.466 172.521 246.153C174.475 245.528 176.436 244.925 178.412 244.373C182.393 243.253 186.373 242.148 190.383 241.138C192.468 240.607 196.944 239.452 197.221 239.495C197.353 239.517 197.382 239.735 197.265 239.779C193.394 241.16 189.464 242.345 185.528 243.537C181.605 244.729 177.668 245.906 173.695 246.909C172.594 247.186 171.486 247.433 170.378 247.694C169.219 247.971 168.052 248.341 166.857 248.45C166.747 248.45 166.638 248.232 166.762 248.174Z" fill="#455A64"/>
<path d="M230.786 142.946C230.677 141.761 230.546 140.576 230.407 139.399C230.393 139.26 230.174 139.26 230.189 139.406C230.662 144.203 231.151 149.117 230.261 153.9C229.43 158.37 227.236 162.288 223.904 165.384C216.84 171.948 206.969 173.881 197.768 175.444C192.497 176.338 187.197 177.029 181.875 177.545C179.272 177.799 176.662 178.01 174.045 178.17C171.457 178.33 168.861 178.359 166.273 178.497C165.457 178.54 164.728 178.918 164.852 179.849C164.932 180.416 165.245 180.961 165.471 181.477C165.748 182.102 166.025 182.735 166.303 183.36C167.345 185.7 168.388 188.041 169.437 190.381C171.603 195.2 173.804 200.005 176.028 204.795C180.453 214.31 185.039 223.744 189.792 233.099C190.383 234.262 190.973 235.418 191.564 236.581C191.6 236.654 191.71 236.588 191.673 236.516C187.131 227.044 182.64 217.544 178.215 208.015C176.021 203.283 173.819 198.558 171.646 193.819C170.56 191.45 169.481 189.08 168.409 186.703C167.87 185.518 167.338 184.326 166.806 183.142C166.536 182.546 166.273 181.949 166.004 181.361C165.785 180.866 164.976 179.682 165.53 179.216C165.902 178.911 166.674 179.013 167.119 178.998C167.804 178.977 168.497 178.955 169.182 178.933C170.487 178.889 171.799 178.838 173.104 178.773C175.751 178.642 178.397 178.461 181.036 178.235C186.213 177.792 191.367 177.138 196.492 176.309C205.634 174.841 215.579 173.191 222.891 167.07C226.12 164.374 228.658 160.899 229.911 156.865C231.348 152.366 231.216 147.569 230.786 142.946Z" fill="#455A64"/>
<path d="M78.2271 234.341C79.5176 235.628 125.039 257.928 127.255 257.681C127.518 257.667 129.625 253.603 132.424 247.999L132.483 247.89C134.269 244.343 150.461 214.527 150.461 214.527L122.137 200.229L105.493 229.253C105.493 229.253 98.0863 228.774 91.4811 228.665C91.4739 228.665 91.4666 228.665 91.4593 228.672C87.3912 228.592 83.8189 228.599 82.9003 228.795C80.509 229.312 76.9367 233.069 78.2271 234.341Z" fill="#D3766A"/>
<path d="M78.2265 234.335C79.5169 235.621 125.038 257.921 127.262 257.682C127.517 257.667 129.631 253.604 132.424 248L132.482 247.891C132.606 247.644 132.737 247.389 132.868 247.142C132.956 246.96 133.051 246.779 133.153 246.604C133.291 246.342 133.43 246.074 133.575 245.805C134.808 243.471 136.834 239.699 139.065 235.57L110.188 221.055L105.493 229.239C105.493 229.239 98.0857 228.76 91.4805 228.65C91.4732 228.65 91.4659 228.65 91.4587 228.658C87.3906 228.585 83.8183 228.585 82.907 228.781C80.5084 229.312 76.9288 233.07 78.2265 234.335Z" fill="white"/>
<path d="M77.9498 234.414C79.2839 235.723 124.922 257.943 127.197 257.696C128.064 257.609 132.183 250.922 135.355 242.861L105.916 228.57C105.916 228.57 85.1892 228.134 82.725 228.679C80.2681 229.225 76.6156 233.106 77.9498 234.414Z" fill="#FFC229"/>
<path d="M79.5024 232.916C87.2448 236.456 118.134 251.452 125.52 255.537C125.578 255.573 125.556 255.609 125.498 255.587C117.748 252.251 86.9751 237.001 79.4441 233.047C79.2764 232.96 79.3347 232.844 79.5024 232.916Z" fill="#263238"/>
<path d="M86.4646 228.468C88.3163 229.275 89.6651 230.998 90.1317 232.561C90.5764 234.058 90.6784 235.911 89.8473 237.467C89.8255 237.511 89.738 237.474 89.7526 237.423C90.7805 234.225 89.337 230.278 86.4208 228.57C86.3625 228.534 86.399 228.446 86.4646 228.468Z" fill="#263238"/>
<path d="M103.145 228.17C106.229 229.616 109.247 232.422 109.932 235.846C109.961 235.976 109.772 236.013 109.699 235.926C107.629 233.156 105.514 230.816 102.912 228.519C102.729 228.359 102.926 228.061 103.145 228.17Z" fill="#263238"/>
<path d="M100.331 227.937C103.415 229.384 106.434 232.19 107.119 235.613C107.148 235.744 106.958 235.78 106.886 235.693C104.815 232.924 102.701 230.583 100.098 228.286C99.9159 228.126 100.113 227.828 100.331 227.937Z" fill="#263238"/>
<path d="M97.517 227.705C100.601 229.152 103.619 231.957 104.304 235.381C104.334 235.512 104.144 235.548 104.071 235.461C102.001 232.691 99.8864 230.351 97.2837 228.054C97.1014 227.894 97.2983 227.596 97.517 227.705Z" fill="#263238"/>
<path d="M94.7025 227.472C97.7864 228.919 100.805 231.724 101.49 235.148C101.519 235.279 101.33 235.315 101.257 235.228C99.1862 232.459 97.0719 230.118 94.4692 227.821C94.287 227.661 94.4838 227.371 94.7025 227.472Z" fill="#263238"/>
<path d="M127.116 247.338C130.55 249.017 127.932 254.338 124.491 252.651C121.065 250.972 123.682 245.651 127.116 247.338Z" fill="#263238"/>
<path d="M101.884 223.002C102.496 225.932 104.355 228.497 105.799 231.063C105.952 231.332 106.295 231.274 106.47 231.085C106.521 231.114 106.579 231.114 106.608 231.041C107.724 228.33 108.139 224.79 107.651 221.883C107.345 220.088 106.01 217.885 103.831 218.408C101.767 218.91 101.527 221.294 101.884 223.002ZM102.978 220.407C104.91 217.231 106.667 221.251 106.834 222.581C106.944 223.438 106.951 224.325 106.944 225.183C106.929 226.993 106.652 228.759 106.455 230.547C105.821 229.246 105.085 228.003 104.407 226.724C103.597 225.205 101.913 222.152 102.978 220.407Z" fill="#263238"/>
<path d="M118.433 234.392C119.17 232.284 117.099 230.743 115.335 230.264C112.477 229.493 108.905 229.566 106.091 230.409C106.018 230.431 106.01 230.489 106.04 230.54C105.835 230.693 105.748 231.034 105.996 231.209C108.416 232.888 110.793 234.988 113.665 235.875C115.335 236.398 117.741 236.384 118.433 234.392ZM110.188 233.011C108.978 232.212 107.811 231.361 106.572 230.605C108.373 230.584 110.166 230.482 111.974 230.634C112.834 230.707 113.716 230.802 114.562 230.998C115.874 231.296 119.716 233.426 116.363 235.039C114.511 235.926 111.631 233.963 110.188 233.011Z" fill="#263238"/>
<path d="M105.632 224.551L139.788 241.567C139.788 241.567 166.449 187.531 169.372 184.049C173.272 179.405 224.05 185.961 236.028 170.973C248.415 155.469 237.8 136.214 237.8 136.214L199.146 136.192C199.146 136.192 199.03 140.466 201.26 146.717C201.26 146.717 157.059 144.093 144.548 156.218C134.947 165.514 105.632 224.551 105.632 224.551Z" fill="#263238"/>
<path d="M208.303 150.607C206.306 149.262 204.286 147.99 202.157 146.863C201.078 146.296 198.877 145.322 197.499 144.988C196.369 144.712 195.88 144.632 196.937 145.133C197.543 145.417 198.702 145.969 199.781 146.478C199.577 146.471 199.372 146.464 199.183 146.456C198.425 146.42 197.667 146.391 196.901 146.369C195.414 146.333 193.927 146.34 192.439 146.333C189.421 146.318 186.439 146.602 183.428 146.747C183.348 146.754 183.348 146.871 183.428 146.871C186.432 146.776 189.45 146.929 192.454 146.922C193.941 146.914 195.428 146.958 196.916 146.987C197.645 147.001 198.366 147.016 199.095 147.023C199.693 147.031 200.335 147.081 200.94 147.023C201.261 147.176 201.552 147.314 201.771 147.416C203.958 148.441 206.138 149.516 208.245 150.701C208.303 150.73 208.362 150.643 208.303 150.607Z" fill="#455A64"/>
<path d="M198.228 134.746C198.622 136.563 198.957 138.395 199.416 140.198C199.628 141.026 199.832 141.87 200.116 142.676C200.357 143.36 200.729 144.137 201.502 144.312C202.391 144.515 202.675 143.759 202.632 143.018C202.581 142.189 202.391 141.353 202.26 140.539C202.099 139.594 201.946 138.657 201.808 137.712C201.735 137.239 201.662 136.767 201.604 136.294C201.589 136.178 201.531 135.27 201.472 135.015C201.465 135.037 201.451 135.059 201.421 135.051C201.414 135.051 201.399 135.051 201.392 135.044C201.37 135.037 201.341 135.022 201.341 134.993C201.334 134.921 201.334 134.906 201.392 134.862C201.414 134.841 201.451 134.841 201.472 134.862C201.64 134.964 201.647 135.197 201.698 135.371C201.83 135.829 201.961 136.294 202.077 136.76C202.296 137.632 202.515 138.497 202.704 139.376C202.894 140.249 203.076 141.128 203.266 142.008C203.404 142.662 203.572 143.352 203.375 144.014C203.156 144.741 202.559 145.082 201.917 145.119C201.946 145.177 201.983 145.235 202.005 145.3C202.077 145.482 202.129 145.671 202.187 145.853C202.252 146.042 202.304 146.231 202.355 146.42C202.376 146.514 202.391 146.609 202.398 146.703C202.406 146.805 202.384 146.907 202.391 147.016C202.406 147.176 202.187 147.27 202.107 147.11C202.063 147.016 201.997 146.943 201.946 146.856C201.895 146.761 201.859 146.652 201.83 146.551C201.771 146.369 201.728 146.187 201.691 145.998C201.655 145.816 201.604 145.627 201.574 145.446C201.56 145.337 201.56 145.22 201.553 145.111C201.188 145.06 200.824 144.922 200.525 144.683C200 144.261 199.701 143.629 199.497 142.996C199.249 142.233 199.067 141.455 198.877 140.677C198.418 138.759 198.039 136.803 197.922 134.826C197.893 134.601 198.184 134.535 198.228 134.746Z" fill="#455A64"/>
<path d="M216.869 139.929C217.001 140.831 217.073 141.739 217.256 142.633C217.431 143.505 217.635 144.385 217.897 145.235C218.145 146.049 218.451 146.878 218.925 147.598C219.377 148.295 219.99 148.906 220.624 149.437C221.863 150.491 223.278 151.341 224.794 151.937C225.56 152.242 226.34 152.497 227.134 152.708C227.55 152.817 227.965 152.904 228.388 152.969C228.738 153.027 229.088 153.049 229.394 153.238C229.526 153.318 229.496 153.529 229.365 153.587C228.818 153.834 228.06 153.66 227.484 153.587C226.814 153.493 226.143 153.362 225.487 153.166C224.167 152.78 222.899 152.184 221.747 151.443C220.617 150.716 219.479 149.822 218.663 148.753C217.817 147.641 217.365 146.347 217.095 144.988C216.767 143.36 216.57 141.594 216.709 139.937C216.702 139.835 216.855 139.827 216.869 139.929Z" fill="#455A64"/>
<path d="M112.565 218.358C113.52 218.641 114.41 219.106 115.307 219.514C116.254 219.95 117.209 220.378 118.15 220.822C120.002 221.701 121.846 222.61 123.661 223.562C127.329 225.467 130.981 227.4 134.59 229.406C136.471 230.453 140.524 232.677 140.692 232.895C140.772 233.004 140.641 233.186 140.524 233.135C136.755 231.492 133.081 229.661 129.406 227.836C125.732 226.019 122.058 224.18 118.478 222.188C117.486 221.636 116.51 221.054 115.525 220.488C114.497 219.899 113.389 219.361 112.449 218.627C112.361 218.554 112.427 218.314 112.565 218.358Z" fill="#455A64"/>
<path d="M237.771 145.176C237.764 145.009 237.516 145.017 237.516 145.184C237.589 153.55 236.291 162.912 229.832 168.909C222.746 175.494 212.532 176.279 203.331 176.199C198.053 176.156 192.782 176.018 187.504 176.185C182.204 176.352 176.845 176.614 171.581 177.282C169.453 177.551 167.674 178.314 166.172 179.863C164.714 181.367 163.664 183.221 162.585 185.002C159.931 189.385 157.358 193.826 154.872 198.303C149.929 207.215 145.35 216.322 141.144 225.597C140.619 226.753 140.101 227.901 139.591 229.064C139.555 229.144 139.671 229.203 139.708 229.13C143.98 219.819 148.609 210.66 153.516 201.661C155.973 197.162 158.51 192.706 161.127 188.302C162.359 186.23 163.555 184.108 164.925 182.131C166.135 180.379 167.659 178.729 169.759 178.096C171.027 177.711 172.376 177.646 173.688 177.529C175.037 177.406 176.386 177.297 177.734 177.195C180.366 177.006 182.998 176.861 185.637 176.766C190.959 176.57 196.274 176.635 201.596 176.737C210.833 176.904 220.93 176.584 228.593 170.719C231.91 168.182 234.294 164.707 235.715 160.804C237.159 156.828 237.676 152.554 237.771 148.346C237.8 147.284 237.8 146.23 237.771 145.176Z" fill="#455A64"/>
<path d="M182.452 181.825C180.564 181.862 178.683 181.934 176.795 182C175.227 182.051 173.652 182.036 172.114 182.414C170.685 182.77 169.555 182.937 168.389 184.529C166.931 186.514 158.999 201.8 155.667 208.567C154.741 210.442 153.83 212.325 152.933 214.214C152.007 216.17 151.191 218.169 150.272 220.124C150.236 220.197 150.345 220.255 150.381 220.182C151.198 218.547 152.109 216.962 152.948 215.341C153.793 213.72 154.61 212.085 155.426 210.449C157.081 207.149 158.729 203.849 160.398 200.557C162.046 197.293 164.051 194.109 165.72 190.853C167.127 188.12 169.045 184.391 170.386 183.831C171.961 183.177 174.535 182.538 176.219 182.421C178.296 182.276 180.374 182.152 182.452 181.971C182.554 181.971 182.547 181.825 182.452 181.825Z" fill="#455A64"/>
<path d="M223.998 83.902C225.77 90.8872 229.079 98.9773 227.461 106.268C226.185 111.981 221.964 116.517 217.313 119.824C207.077 127.1 191.454 130.974 181.269 121.445C177.201 117.636 174.751 108.477 179.279 104.014C181.604 101.725 184.71 100.671 187.575 99.2317C191.351 97.3418 193.779 94.5143 194.865 90.422C196.987 82.4483 195.179 77.302 194.253 69.3356C194.085 67.86 194.129 66.3554 195.317 64.8362C196.273 63.3389 197.745 62.1396 199.444 61.3037C200.836 60.3878 202.367 59.7045 204.051 59.5446C207.602 59.1957 211.597 61.7034 214.695 63.1426C217.83 64.6036 219.514 66.4499 220.426 69.808C221.672 74.5036 222.802 79.2137 223.998 83.902Z" fill="#263238"/>
<path d="M225.559 87.0496C223.517 80.7477 221.359 74.4966 219.238 68.231C219.223 68.1947 219.165 68.2092 219.18 68.2455C220.776 73.4572 222.293 78.6834 223.962 83.8732C225.595 88.9613 227.622 94.0785 228.796 99.2901C231.442 110.993 220.31 118.254 210.176 119.73C209.717 119.795 209.877 120.522 210.336 120.442C219.194 118.865 229.087 113.711 229.78 103.622C230.159 98.0908 227.221 92.2031 225.559 87.0496Z" fill="#263238"/>
<path d="M194.684 68.6235C194.654 68.4999 194.472 68.5435 194.487 68.6671C195.522 75.1871 197.345 82.6884 194.815 89.0703C193.575 92.1959 191.388 94.9216 188.582 96.7897C186.351 98.2725 183.792 98.8903 181.349 99.9079C171.806 103.891 174.467 117.302 182.771 121.045C182.946 121.125 183.085 120.827 182.917 120.74C176.997 117.738 173.804 110.738 176.844 104.494C179.279 99.4864 185.957 99.5445 190.018 96.2809C198.431 89.5137 196.82 77.9565 194.684 68.6235Z" fill="#263238"/>
<path d="M212.298 94.9871C207.917 104.429 192.949 126.322 185.739 127.325C179.36 128.212 163.562 124.549 158.24 121.634C155.797 120.297 161.95 102.219 166.055 103.077C171.187 104.153 178.135 106.675 182.888 106.966C184.573 107.068 192.679 101.296 206.961 91.9197C212.269 88.438 214.762 89.6736 212.298 94.9871Z" fill="#D3766A"/>
<path d="M157.787 105.33C157.787 105.33 145.08 103.375 144.431 103.491C143.775 103.622 143.914 104.545 143.994 105.279C144.008 105.454 144.256 105.904 144.548 106.5C145.503 108.383 147.114 111.741 144.555 112.504C141.187 113.507 137.549 105.962 137.17 104.698C137.068 104.356 137.104 103.716 137.272 102.953C137.731 100.889 139.168 97.8723 141.617 97.0946C144.971 96.0261 148.806 96.4913 152.159 96.6585L157.787 105.33Z" fill="#D3766A"/>
<path d="M157.788 105.329C157.788 105.329 145.081 103.374 144.432 103.49C143.776 103.621 143.914 104.544 143.994 105.279C144.009 105.453 144.257 105.904 144.548 106.5C141.953 105.242 139.088 103.847 137.272 102.945C137.732 100.881 139.168 97.8645 141.618 97.0868C144.971 96.0183 148.806 96.4835 152.16 96.6507L157.788 105.329Z" fill="#263238"/>
<path d="M158.239 121.633C157.575 121.277 154.156 120.274 149.541 118.682C148.302 115.128 144.999 108.332 144.132 106.529C143.512 104.356 140.946 100.074 140.749 100.169C140.377 100.35 139.05 100.99 137.381 101.637C135.179 102.487 132.372 103.367 130.368 103.236C129.274 103.163 128.428 102.8 128.027 101.986C127.306 100.518 130.47 98.8095 134.042 96.4617C138.905 93.2563 145.043 89.5856 148.054 90.4723C152.501 91.7807 156.883 97.1959 158.377 98.6569C159.879 100.118 166.054 103.084 166.054 103.084C164.786 109.727 159.128 122.098 158.239 121.633Z" fill="#D3766A"/>
<path d="M143.629 105.177C143.578 105.09 143.52 105.134 143.564 105.243C143.695 105.592 144.242 107.154 143.899 107.322C143.309 107.62 139.751 105.701 138.118 105.163C138.03 105.134 137.979 105.25 138.067 105.272C138.512 105.388 140.079 106.224 140.465 106.413C141.216 106.784 143.411 108.077 144.162 107.707C144.657 107.467 143.841 105.526 143.629 105.177Z" fill="#263238"/>
<path d="M126.22 113.697C125.782 114.125 125.294 114.474 125.09 114.271L125.082 114.263C124.893 114.053 125.25 113.58 125.687 113.151L126.22 113.697Z" fill="#263238"/>
<path d="M131.301 113.093C130.842 113.536 127.364 113.892 126.074 113.827C125.826 113.812 125.541 113.536 125.541 113.296C125.512 112.032 125.957 108.543 126.416 108.099C126.73 107.794 128.173 107.045 129.588 106.166C131.432 105.025 151.24 86.7294 151.561 86.6421C151.889 86.5549 152.48 87.0419 152.771 87.3472C153.07 87.6525 153.551 88.2631 153.456 88.5829C153.354 88.8954 134.509 108.179 133.32 109.989C132.402 111.37 131.614 112.795 131.301 113.093Z" fill="#37474F"/>
<path d="M131.301 113.1C131.265 113.136 131.206 113.173 131.126 113.202C129.843 112.388 128.873 111.559 128.137 110.803C127.145 109.786 126.584 108.906 126.285 108.346C126.322 108.23 126.373 108.15 126.424 108.107C126.475 108.056 126.548 107.997 126.65 107.925C127.073 108.783 128.341 110.854 131.505 112.853C131.418 112.969 131.352 113.049 131.301 113.1Z" fill="#A6A6A6"/>
<path d="M131.126 108.659L130.863 108.39C130.659 108.179 130.659 107.845 130.87 107.641L136.426 102.241C136.637 102.037 136.973 102.037 137.177 102.248L137.439 102.517C137.643 102.728 137.643 103.062 137.432 103.266L131.877 108.666C131.665 108.87 131.33 108.87 131.126 108.659Z" fill="#263238"/>
<path d="M131.352 108.332L131.199 108.172C131.082 108.049 131.082 107.852 131.206 107.736L134.771 104.269C134.895 104.153 135.092 104.153 135.209 104.276L135.362 104.436C135.478 104.56 135.478 104.756 135.354 104.872L131.789 108.339C131.665 108.456 131.469 108.456 131.352 108.332Z" fill="#A6A6A6"/>
<path d="M132.484 106.495L132.307 106.667L132.892 107.266L133.069 107.093L132.484 106.495Z" fill="#263238"/>
<path d="M149.542 118.682C147.96 118.144 146.553 117.679 145.583 117.388C141.77 116.254 140.028 114.386 138.497 112.162C136.98 109.938 129.216 107.554 132.993 105.213C136.776 102.873 143.535 108.601 144.191 107.612C144.315 107.423 144.278 107.031 144.132 106.529C145 108.332 148.302 115.121 149.542 118.682Z" fill="#D3766A"/>
<path d="M190.565 100.686L206.262 106.958C206.262 106.958 211.219 100.075 213.421 95.881C216.337 90.3277 214.952 87.9509 207.771 90.7275C202.959 92.581 190.565 100.686 190.565 100.686Z" fill="#FFC229"/>
<path d="M204.345 106.195C204.527 106.231 206.16 106.82 206.262 106.9C206.823 106.079 207.378 105.243 207.946 104.429C208.23 104.022 208.522 103.615 208.821 103.215C209.149 102.772 209.499 102.255 209.791 101.87C209.834 101.812 209.915 101.863 209.878 101.928C209.55 102.473 209.288 102.866 209.003 103.338C208.748 103.76 208.478 104.174 208.209 104.581C207.625 105.446 207.042 106.384 206.422 107.22C206.371 107.285 204.469 106.362 204.316 106.268C204.294 106.231 204.316 106.188 204.345 106.195Z" fill="#263238"/>
<path d="M192.752 99.8353C195.1 100.591 197.433 101.376 199.729 102.27C200.874 102.714 202.018 103.179 203.148 103.659C204.278 104.138 205.365 104.734 206.502 105.192C206.568 105.214 206.517 105.316 206.458 105.287C205.35 104.763 204.154 104.393 203.017 103.935C201.88 103.477 200.735 103.019 199.591 102.568C197.301 101.674 195.012 100.773 192.709 99.9298C192.643 99.908 192.694 99.8135 192.752 99.8353Z" fill="#263238"/>
<path d="M195.807 137.981L240.402 141.572C240.402 141.572 228.985 102.779 219.8 92.9879C215.615 88.5322 211.525 89.2154 208.062 92.0793C207.194 92.7989 196.477 106.355 195.573 111.087C194.772 115.266 198.176 119.904 198.176 119.904L195.807 137.981Z" fill="#FFC229"/>
<path d="M202.405 99.2754C201.063 101.412 199.598 103.477 198.249 105.599C197.564 106.653 196.908 107.722 196.368 108.848C195.822 109.968 195.457 111.174 195.45 112.446C195.377 111.821 195.399 111.182 195.523 110.542C195.639 109.917 195.844 109.306 196.091 108.717C196.587 107.54 197.258 106.457 197.921 105.381C198.563 104.414 199.226 103.448 199.904 102.51C200.014 102.176 200.152 101.856 200.276 101.529C200.488 101.063 200.699 100.584 200.976 100.148C200.852 100.649 200.648 101.122 200.458 101.594C200.393 101.732 200.342 101.856 200.283 101.987C200.969 101.071 201.676 100.162 202.405 99.2754Z" fill="#263238"/>
<path d="M231.516 115.586C229.745 116.262 227.973 116.96 226.085 117.294C225.538 117.382 224.984 117.433 224.422 117.36C223.868 117.302 223.314 117.084 222.906 116.691C222.082 115.892 221.798 114.743 221.616 113.675C221.426 112.388 221.361 111.102 221.302 109.815C221.302 109.75 221.295 109.684 221.288 109.626C221.251 108.783 221.207 107.94 221.12 107.104C221.011 106.021 220.85 104.93 220.537 103.891C220.23 102.844 219.764 101.841 219.064 101.013C218.386 100.169 217.46 99.5225 216.447 99.1591C215.419 98.7956 214.311 98.7229 213.224 98.752C211.715 98.8102 210.221 99.0573 208.733 99.3553C208.682 99.3699 208.624 99.3771 208.573 99.3844C207.953 99.5152 207.341 99.6461 206.721 99.7769C204.95 100.148 203.178 100.533 201.37 100.736C201.407 100.685 201.443 100.635 201.472 100.584C203.229 100.38 204.957 100.002 206.692 99.6315C207.334 99.4934 207.975 99.3553 208.624 99.2245C208.675 99.2099 208.726 99.2027 208.777 99.1954C210.235 98.8901 211.715 98.643 213.217 98.5848C214.318 98.5558 215.448 98.6285 216.505 98.9919C217.555 99.3699 218.503 100.031 219.21 100.896C219.924 101.754 220.398 102.779 220.704 103.84C221.025 104.901 221.178 105.999 221.288 107.089C221.368 107.881 221.412 108.674 221.448 109.466C221.455 109.531 221.455 109.597 221.463 109.655C221.521 110.992 221.572 112.33 221.769 113.646C221.944 114.707 222.228 115.826 223.008 116.582C223.796 117.353 225.013 117.331 226.063 117.156C227.929 116.829 229.701 116.146 231.472 115.477C231.487 115.514 231.502 115.55 231.516 115.586ZM205.088 134.572C204.279 133.838 203.346 133.118 202.201 133.002C201.633 132.944 201.064 133.118 200.59 133.416C200.109 133.707 199.708 134.092 199.329 134.499C198.352 135.597 197.565 136.818 196.814 138.061L196.959 138.076C197.703 136.854 198.483 135.655 199.431 134.594C200.145 133.809 201.093 133.031 202.187 133.147C203.266 133.256 204.192 133.954 204.986 134.681C206.422 136.026 207.64 137.589 208.989 139.042L209.244 139.064C207.844 137.589 206.59 135.968 205.088 134.572ZM236.16 128.379C236.007 128.386 235.847 128.401 235.694 128.416C233.455 128.655 231.494 129.906 229.868 131.367C228.221 132.835 226.821 134.543 225.421 136.237C224.32 137.552 223.234 138.89 222.017 140.089L222.228 140.111C223.416 138.919 224.466 137.618 225.538 136.331C226.938 134.638 228.33 132.929 229.956 131.468C231.574 130.015 233.506 128.772 235.701 128.532C235.868 128.517 236.036 128.503 236.204 128.495C236.189 128.459 236.175 128.423 236.16 128.379ZM227.448 105.912C225.341 106.275 223.504 107.518 221.98 108.95C221.798 109.117 221.623 109.292 221.448 109.466C221.39 109.524 221.339 109.575 221.288 109.626C219.975 110.971 218.809 112.453 217.642 113.915C216.578 115.252 215.528 116.604 214.34 117.832C214.296 117.876 214.252 117.927 214.201 117.97C213.917 118.268 213.611 118.559 213.297 118.843C212.481 119.555 211.577 120.202 210.556 120.58C209.543 120.943 208.42 121.038 207.356 120.827C206.291 120.624 205.285 120.151 204.381 119.54C203.47 118.944 202.653 118.203 201.873 117.44C200.298 115.913 198.935 114.176 197.28 112.708C196.748 112.25 196.158 111.792 195.501 111.501C195.494 111.552 195.487 111.61 195.479 111.661C196.099 111.93 196.668 112.366 197.185 112.817C198.819 114.278 200.182 116.015 201.749 117.563C202.537 118.334 203.36 119.075 204.286 119.686C205.198 120.311 206.226 120.798 207.326 121.001C208.42 121.22 209.572 121.125 210.622 120.747C211.672 120.355 212.583 119.693 213.407 118.966C213.749 118.654 214.085 118.334 214.398 118.007C214.449 117.963 214.493 117.912 214.537 117.869C215.696 116.648 216.724 115.317 217.766 114.009C218.896 112.57 220.034 111.123 221.302 109.815C221.353 109.757 221.404 109.706 221.463 109.655C221.659 109.452 221.864 109.248 222.075 109.052C223.591 107.62 225.414 106.377 227.492 106.028C227.477 105.984 227.463 105.948 227.448 105.912ZM222.724 120.485C222.024 119.584 220.908 119.17 219.866 118.872C218.109 118.399 216.308 118.188 214.537 117.869C214.471 117.854 214.405 117.84 214.34 117.832C214.019 117.767 213.698 117.709 213.377 117.636C212.306 117.403 211.241 117.12 210.235 116.691C209.229 116.27 208.289 115.695 207.531 114.91C206.772 114.14 206.233 113.151 205.985 112.105C205.744 111.051 205.795 109.939 205.949 108.863C206.277 106.704 207.013 104.625 207.706 102.546C208.055 101.492 208.413 100.431 208.733 99.3553C208.748 99.3044 208.763 99.2463 208.777 99.1954C209.069 98.2141 209.317 97.2183 209.499 96.208C209.798 94.5289 209.878 92.7481 209.433 91.0908C209.397 91.1126 209.36 91.1344 209.324 91.1562C209.747 92.7844 209.659 94.5289 209.36 96.1789C209.178 97.2111 208.916 98.2214 208.624 99.2245C208.602 99.2754 208.588 99.3262 208.573 99.3844C208.26 100.424 207.91 101.463 207.56 102.495C206.867 104.574 206.124 106.653 205.781 108.841C205.628 109.931 205.569 111.051 205.817 112.141C206.072 113.224 206.619 114.242 207.399 115.034C208.179 115.841 209.149 116.429 210.17 116.851C211.19 117.287 212.262 117.563 213.341 117.796C213.625 117.861 213.917 117.92 214.201 117.97C214.267 117.985 214.333 117.992 214.398 118.007C216.213 118.341 218.051 118.545 219.822 119.017C220.857 119.308 221.944 119.715 222.607 120.573C223.285 121.445 223.125 122.651 222.833 123.669C222.213 125.77 221.12 127.696 220.128 129.651C219.13 131.599 218.109 133.562 217.438 135.662C217.117 136.709 216.87 137.799 216.906 138.904C216.913 139.166 216.943 139.428 216.986 139.689L217.088 139.697C217.037 139.435 217.008 139.173 217.001 138.904C216.972 137.814 217.212 136.731 217.54 135.691C218.211 133.605 219.239 131.65 220.238 129.702C221.229 127.747 222.33 125.828 222.964 123.705C223.11 123.175 223.234 122.63 223.227 122.07C223.227 121.51 223.074 120.936 222.724 120.485Z" fill="white"/>
<path d="M210.133 118.959C208.405 119.032 206.67 119.17 204.971 119.497C204.126 119.664 203.295 119.86 202.463 120.086C202.048 120.195 201.632 120.289 201.217 120.384C200.787 120.478 200.327 120.565 199.883 120.551C199.846 120.551 199.839 120.609 199.883 120.609C200.313 120.645 200.721 120.682 201.151 120.66C201.559 120.638 201.968 120.58 202.376 120.507C203.236 120.347 204.089 120.151 204.942 119.984C206.67 119.65 208.398 119.315 210.148 119.097C210.228 119.097 210.221 118.959 210.133 118.959Z" fill="#263238"/>
<path d="M214.303 120.733C212.903 120.508 211.467 120.34 210.045 120.275C209.331 120.239 208.617 120.253 207.902 120.275C207.559 120.29 207.217 120.304 206.881 120.333C206.51 120.355 206.138 120.435 205.759 120.457C205.722 120.457 205.715 120.522 205.759 120.515C206.116 120.508 206.473 120.559 206.823 120.573C207.18 120.588 207.538 120.595 207.887 120.609C208.602 120.631 209.309 120.668 210.024 120.682C211.452 120.718 212.874 120.769 214.296 120.849C214.376 120.857 214.376 120.748 214.303 120.733Z" fill="#263238"/>
<path d="M213.953 90.9523C213.997 91.7592 211.846 97.6904 208.354 98.5481C207.217 98.8243 205.431 92.6968 205.431 92.6968L205.198 92.2752L201.902 86.3658L207.946 79.4024L208.836 78.4502C208.836 78.4502 209.63 80.1293 210.6 82.2226C210.644 82.3171 210.687 82.4189 210.738 82.5207C210.797 82.637 210.855 82.746 210.899 82.8623C211.045 83.1748 211.198 83.4947 211.343 83.8145C211.453 84.0544 211.562 84.2942 211.664 84.5559C211.781 84.8176 211.883 85.0647 211.992 85.3264C213.049 87.8922 213.924 90.618 213.953 90.9523Z" fill="#D3766A"/>
<path d="M210.592 82.2305C210.264 87.8056 206.837 91.0474 205.19 92.2831L201.895 86.3736L207.938 79.4102L208.828 78.458C208.828 78.4508 209.622 80.1298 210.592 82.2305Z" fill="#263238"/>
<path d="M190.755 77.4405C191.141 89.303 198.308 90.4078 200.874 90.3278C203.199 90.2479 211.124 89.6882 211.97 77.8548C212.816 66.0141 207.165 62.4451 201.829 62.3434C196.492 62.2344 190.368 65.578 190.755 77.4405Z" fill="#D3766A"/>
<path d="M192.367 75.332C192.644 75.2811 192.892 75.1939 193.161 75.1212C193.468 75.034 193.715 74.9976 193.927 74.7505C194.043 74.6197 194.014 74.358 193.898 74.2344C193.621 73.9437 193.22 73.9582 192.848 74.0454C192.447 74.1399 192.163 74.3144 191.907 74.6415C191.674 74.9613 192.002 75.3974 192.367 75.332Z" fill="#263238"/>
<path d="M200.517 74.8671C200.233 74.8525 199.978 74.7871 199.708 74.7435C199.395 74.6926 199.147 74.6853 198.906 74.46C198.775 74.3364 198.775 74.082 198.877 73.9439C199.125 73.6314 199.519 73.595 199.898 73.6459C200.306 73.6968 200.612 73.8422 200.896 74.1329C201.166 74.4164 200.889 74.8889 200.517 74.8671Z" fill="#263238"/>
<path d="M198.789 77.8764C198.797 77.8473 198.855 77.9127 198.855 77.9491C198.855 78.7559 198.994 79.6863 199.73 79.9262C199.752 79.9334 199.752 79.977 199.723 79.9698C198.826 79.8753 198.658 78.6469 198.789 77.8764Z" fill="#263238"/>
<path d="M199.49 77.0112C200.788 76.8731 200.97 79.4753 199.767 79.6061C198.586 79.7297 198.396 77.1275 199.49 77.0112Z" fill="#263238"/>
<path d="M200.015 77.1127C200.255 77.2436 200.496 77.4907 200.773 77.498C201.094 77.5052 201.312 77.2145 201.502 76.9383C201.524 76.9092 201.546 76.931 201.546 76.9674C201.589 77.4689 201.429 77.9922 200.904 78.1013C200.423 78.203 200.036 77.7887 199.876 77.2944C199.847 77.1999 199.913 77.0618 200.015 77.1127Z" fill="#263238"/>
<path d="M194.284 78.0214C194.277 77.9923 194.226 78.065 194.226 78.0941C194.313 78.9009 194.277 79.8313 193.57 80.1584C193.548 80.1656 193.555 80.2093 193.577 80.202C194.467 80.013 194.496 78.7701 194.284 78.0214Z" fill="#263238"/>
<path d="M193.497 77.2363C192.192 77.2363 192.294 79.8458 193.504 79.8458C194.692 79.8385 194.597 77.2363 193.497 77.2363Z" fill="#263238"/>
<path d="M192.957 77.4323C192.753 77.5777 192.563 77.8393 192.315 77.8612C192.031 77.8902 191.805 77.614 191.616 77.3523C191.594 77.3233 191.579 77.3451 191.579 77.3814C191.586 77.883 191.769 78.3918 192.257 78.4717C192.702 78.5444 193.001 78.101 193.103 77.5995C193.117 77.505 193.044 77.3669 192.957 77.4323Z" fill="#263238"/>
<path d="M199.351 84.4909C199.183 84.7017 199.016 84.9852 198.731 85.0433C198.454 85.1015 198.112 85.0142 197.842 84.9416C197.813 84.9343 197.791 84.9634 197.813 84.9852C198.06 85.2686 198.52 85.414 198.884 85.305C199.242 85.196 199.387 84.8616 199.438 84.52C199.438 84.4691 199.373 84.4545 199.351 84.4909Z" fill="#263238"/>
<path d="M196.143 83.3572C196.143 83.3572 196.697 84.1132 197.462 84.3821C197.746 84.4839 198.045 84.5275 198.366 84.4403C199.022 84.2731 199.037 83.6771 198.92 83.161C198.825 82.7394 198.629 82.376 198.629 82.376C198.629 82.376 197.674 83.2628 196.143 83.3572Z" fill="#263238"/>
<path d="M197.462 84.3823C197.746 84.484 198.045 84.5276 198.366 84.4404C199.022 84.2732 199.037 83.6772 198.92 83.1611C198.22 83.2338 197.52 83.7063 197.462 84.3823Z" fill="#FF9CBD"/>
<path d="M195.8 81.7647C195.8 81.7647 195.706 82.9786 195.735 83.5455C195.735 83.5964 195.88 83.6182 196.07 83.6182C196.077 83.6182 196.085 83.6255 196.092 83.6182C197.105 83.7127 198.104 83.3129 198.665 82.4552C198.702 82.3971 198.629 82.3462 198.578 82.3825C197.856 82.9786 197.04 83.1675 196.143 83.233C196.092 83.0803 196.376 81.1614 196.289 81.1541C195.975 81.1469 195.377 81.394 195.013 81.5248C195.137 78.9881 195.676 76.4949 195.764 73.9654C195.764 73.8782 195.633 73.8564 195.611 73.9363C194.867 76.5094 194.656 79.4242 194.459 82.0409C194.422 82.3753 195.574 81.881 195.8 81.7647Z" fill="#263238"/>
<path d="M211.117 78.7921C209.827 78.7122 206.466 75.1505 206.386 68.914C206.386 68.914 206.845 74.5036 207.261 75.325C207.676 76.1463 205.387 73.3188 205.249 68.2962C205.249 68.2962 202.449 70.295 200.065 70.9492C197.681 71.6034 196.223 71.5743 196.055 71.4072C195.888 71.2327 199.394 70.1497 200.342 69.0594C200.342 69.0594 194 71.9668 191.083 72.1776C190.748 72.1994 190.369 65.2796 194.889 62.3576C199.409 59.4356 206.546 62.6338 208.464 64.4946C208.464 64.4946 210.716 64.8217 213.159 68.158C215.608 71.5089 212.51 78.8794 211.117 78.7921Z" fill="#263238"/>
<path d="M200.356 81.7357C198.3 81.5612 196.777 79.7586 196.944 77.7161C197.119 75.6663 198.927 74.1472 200.976 74.3143C203.032 74.4888 204.555 76.2914 204.388 78.3339C204.242 80.0639 202.922 81.4231 201.282 81.6993C200.983 81.7429 200.67 81.7575 200.356 81.7357ZM197.44 77.7524C197.294 79.526 198.614 81.0888 200.393 81.2341C202.171 81.3868 203.739 80.0639 203.885 78.2903C204.031 76.5167 202.711 74.954 200.932 74.8086C200.655 74.7868 200.385 74.8013 200.13 74.8377C198.709 75.0775 197.571 76.2551 197.44 77.7524Z" fill="#FFC229"/>
<path d="M192.475 82.0917C190.944 82.1644 189.618 80.558 189.516 78.5082C189.464 77.5269 189.705 76.5893 190.179 75.8697C190.667 75.121 191.353 74.6921 192.111 74.6558C192.869 74.6195 193.598 74.9829 194.152 75.6807C194.692 76.3567 195.02 77.2653 195.071 78.2465C195.166 80.1873 194.13 81.8373 192.716 82.0771C192.636 82.0844 192.556 82.0917 192.475 82.0917ZM190.594 76.1459C190.179 76.7783 189.975 77.6142 190.011 78.4864C190.099 80.26 191.192 81.6556 192.446 81.5974C193.708 81.5393 194.655 80.0419 194.568 78.2611C194.524 77.3888 194.24 76.5747 193.759 75.986C193.299 75.419 192.723 75.121 192.125 75.1501C192.06 75.1501 192.002 75.1573 191.936 75.1719C191.426 75.2591 190.952 75.6007 190.594 76.1459Z" fill="#FFC229"/>
<path d="M197.09 78.1373L197.389 77.7376C196.798 77.2942 195.457 76.7199 194.597 77.7376L194.976 78.0574C195.756 77.1415 197.039 78.0937 197.09 78.1373Z" fill="#FFC229"/>
<path d="M213.764 78.283L214.194 78.0358C214.077 77.8323 213.02 76.0733 211.898 75.9425C210.848 75.8262 204.192 76.7784 203.907 76.822L203.98 77.3162C205.89 77.04 211.03 76.3495 211.839 76.444C212.583 76.5167 213.48 77.796 213.764 78.283Z" fill="#FFC229"/>
<path d="M212.13 82.2225C211.941 82.317 211.766 82.3824 211.598 82.426C211.401 82.4842 211.211 82.506 211.044 82.506C210.774 82.5133 210.541 82.4551 210.337 82.3679C210.154 82.2952 209.987 82.1862 209.848 82.0771C209.498 81.7937 209.323 81.4666 209.323 81.4666L209.6 78.2393C209.6 78.2393 211.744 74.256 213.523 74.9756C215.309 75.6952 214.011 81.2558 212.13 82.2225Z" fill="#D3766A"/>
<path d="M213.115 76.5604C213.144 76.5531 213.158 76.5967 213.129 76.6113C211.817 77.3309 211.248 78.6901 210.898 80.0712C211.248 79.5115 211.773 79.1698 212.51 79.5769C212.546 79.5987 212.524 79.6568 212.48 79.6568C211.905 79.606 211.504 79.7513 211.175 80.2456C210.942 80.5945 210.811 81.0234 210.658 81.4159C210.607 81.5467 210.381 81.5104 210.41 81.3577C210.41 81.3504 210.417 81.3359 210.417 81.3214C210.177 79.5769 211.248 76.9602 213.115 76.5604Z" fill="#263238"/>
<path d="M211.912 81.7427C211.89 82.0479 211.62 82.2733 211.321 82.2442C211.015 82.2224 210.789 81.9534 210.818 81.6554C210.84 81.3501 211.11 81.1248 211.408 81.1539C211.707 81.1757 211.933 81.4374 211.912 81.7427Z" fill="white"/>
<path d="M212.932 80.7829C212.918 80.9936 212.728 81.1536 212.51 81.139C212.298 81.1245 212.138 80.9355 212.152 80.7174C212.167 80.5066 212.356 80.3467 212.575 80.3613C212.794 80.3831 212.954 80.5721 212.932 80.7829Z" fill="white"/>
<path d="M221.842 95.1183C229.949 107.642 240.622 128.598 234.811 132.618C225.261 139.225 198.753 141.34 192.694 141.573C190.077 141.674 186.257 124.375 188.16 122.332C190.063 120.29 217.854 120.973 218.189 119.294C218.379 118.342 216.797 109.925 214.923 99.465C212.758 87.399 219.516 91.5349 221.842 95.1183Z" fill="#D3766A"/>
<path d="M192.803 121.308C192.803 121.308 184.872 120.61 179.659 120.392C176.75 120.276 171.749 120.508 169.576 121.395C166.325 122.718 153.559 130.336 155.345 133.461C156.964 136.289 167.09 128.359 167.09 128.359C167.09 128.359 156.162 135.46 158.735 138.506C161.309 141.551 171.559 131.077 171.559 131.077C171.559 131.077 160.492 138.622 163.642 141.348C166.026 143.405 175.846 134.442 175.846 134.442C175.846 134.442 166.376 140.992 168.738 143.216C171.348 145.673 180.927 137.96 180.927 137.96C187.875 142.605 193.095 141.98 196.748 141.101C197.637 140.897 192.803 121.308 192.803 121.308Z" fill="#D3766A"/>
<path d="M170.713 125.662C169.401 126.447 168.067 127.239 166.82 128.141C165.581 129.042 164.371 129.987 163.219 130.997C160.397 133.483 159.019 135.475 159.121 135.359C161.447 132.662 165.836 129.369 167.075 128.468C168.315 127.567 169.503 126.607 170.742 125.706C170.779 125.684 170.75 125.64 170.713 125.662Z" fill="#263238"/>
<path d="M174.06 130.067C172.427 131.143 170.764 132.153 169.175 133.309C167.593 134.457 166.201 135.678 164.699 136.928C164.582 137.023 164.677 137.052 164.794 136.965C166.339 135.773 167.863 134.791 169.416 133.621C170.969 132.451 172.492 131.215 174.082 130.103C174.118 130.089 174.089 130.052 174.06 130.067Z" fill="#263238"/>
<path d="M177.617 133.331C175.036 134.85 172.733 136.842 170.531 138.855C170.421 138.957 170.538 138.979 170.662 138.884C172.98 137.002 174.788 135.512 177.675 133.418C177.712 133.389 177.668 133.302 177.617 133.331Z" fill="#263238"/>
<path d="M194.313 121.046C192.468 120.893 190.463 120.981 188.568 120.908C186.913 120.85 185.36 120.625 183.749 120.516C180.446 120.297 175.569 119.992 172.281 120.516C169.904 120.894 166.952 122.827 165.275 123.619C165.202 123.656 165.26 123.757 165.333 123.728C168.475 122.602 170.371 121.257 173.221 120.85C176.495 120.385 185.032 121.024 188.327 121.213C190.252 121.322 192.381 121.126 194.305 121.199C194.4 121.192 194.415 121.053 194.313 121.046Z" fill="#263238"/>
<path d="M232.208 111.014L215.36 109.575C215.36 109.575 214.041 101.202 213.968 96.4698C213.873 90.2042 216.184 88.6996 221.346 94.4055C224.794 98.2143 232.208 111.014 232.208 111.014Z" fill="#FFC229"/>
<path d="M217.408 109.757C217.233 109.706 215.505 109.503 215.374 109.525C215.243 108.536 215.126 107.547 214.988 106.559C214.915 106.065 214.835 105.57 214.755 105.083C214.66 104.546 214.58 103.92 214.492 103.441C214.478 103.368 214.383 103.375 214.39 103.448C214.434 104.08 214.492 104.553 214.536 105.098C214.572 105.585 214.623 106.079 214.689 106.566C214.82 107.598 214.915 108.703 215.097 109.721C215.112 109.801 217.226 109.83 217.408 109.815C217.437 109.815 217.437 109.764 217.408 109.757Z" fill="#263238"/>
<path d="M230.633 109.277C228.198 108.899 225.756 108.558 223.306 108.318C222.082 108.202 220.857 108.1 219.625 108.02C218.4 107.94 217.161 107.984 215.936 107.889C215.87 107.882 215.863 107.991 215.929 107.991C217.153 108.027 218.385 108.223 219.61 108.325C220.835 108.427 222.06 108.529 223.292 108.645C225.741 108.87 228.191 109.096 230.633 109.379C230.699 109.386 230.699 109.285 230.633 109.277Z" fill="#263238"/>
<path d="M273.187 139.457H27.6455V148.165H273.187V139.457Z" fill="#37474F"/>
<path d="M264.402 148.165H36.4375V156.866H264.402V148.165Z" fill="#455A64"/>
<path d="M36.4524 279.023H32.9238L43.196 156.873H52.207L36.4524 279.023Z" fill="#455A64"/>
<path d="M52.207 156.873L51.1499 165.043H42.5107L43.196 156.873H52.207Z" fill="#263238"/>
<path d="M264.381 279.023H267.909L257.637 156.873H248.626L264.381 279.023Z" fill="#455A64"/>
<path d="M248.626 156.873L249.683 165.043H258.322L257.637 156.873H248.626Z" fill="#263238"/>
<path d="M89.3956 139.457H140.042L127.743 105.76H77.0967L89.3956 139.457Z" fill="#263238"/>
<path d="M87.6027 139.457H138.249L125.95 105.76H75.3037L87.6027 139.457Z" fill="#37474F"/>
<path d="M75.2959 105.76L87.6021 139.457H108.088L80.042 105.76H75.2959Z" fill="#263238"/>
<path d="M78.5762 139.458H84.7439L90.2773 129.899H84.1096L78.5762 139.458Z" fill="#455A64"/>
<path d="M90.2776 129.899V139.458H84.7441L90.2776 129.899Z" fill="#37474F"/>
<path d="M113.155 139.458H119.316L124.849 129.899H118.689L113.155 139.458Z" fill="#455A64"/>
<path d="M124.849 129.899V139.458H119.315L124.849 129.899Z" fill="#263238"/>
<path d="M201.858 137.625H160.922V139.457H201.858V137.625Z" fill="white"/>
<path d="M181.525 137.625H160.922V139.457H181.525V137.625Z" fill="#A6A6A6"/>
<path d="M179.308 139.457H139.415L134.195 112.439H174.096L179.308 139.457Z" fill="white"/>
<path d="M159.179 125.945C159.296 127.282 158.304 128.365 156.963 128.365C155.621 128.365 154.44 127.282 154.324 125.945C154.207 124.607 155.199 123.524 156.54 123.524C157.882 123.524 159.063 124.607 159.179 125.945Z" fill="#A6A6A6"/>
<path d="M57.8064 134.987L56.4941 134.82L63.2524 83.5899L87.7701 70.1719L88.4116 71.3276L64.4772 84.4258L57.8064 134.987Z" fill="#263238"/>
<path d="M61.998 84.0043C61.998 85.0292 62.8364 85.8651 63.8644 85.8651C64.8923 85.8651 65.7307 85.0292 65.7307 84.0043C65.7307 82.9795 64.8923 82.1436 63.8644 82.1436C62.8364 82.1436 61.998 82.9795 61.998 84.0043Z" fill="#FFC229"/>
<path d="M85.9619 70.7534C85.9619 71.7782 86.8003 72.6141 87.8283 72.6141C88.8562 72.6141 89.6946 71.7782 89.6946 70.7534C89.6946 69.7285 88.8562 68.8926 87.8283 68.8926C86.8003 68.8926 85.9619 69.7212 85.9619 70.7534Z" fill="#FFC229"/>
<path d="M100.375 72.454L91.6046 82.2158L87.5511 77.2295L85.0869 74.1912L91.6629 66.8789L94.9654 68.9941L100.375 72.454Z" fill="#FFC229"/>
<path opacity="0.1" d="M100.375 72.454L91.6043 82.2159L87.5508 77.2296L94.9651 68.9941L100.375 72.454Z" fill="black"/>
<path d="M113.09 77.2732L97.7942 94.2892L87.6387 81.3728L99.0992 68.6162L113.09 77.2732Z" fill="#FFC229"/>
<path d="M69.1647 139.457H46.5352L47.9203 132.37H67.7722L69.1647 139.457Z" fill="#FFC229"/>
<path d="M193.889 11.6597L170.494 34.8177C168.905 36.3878 166.331 36.3805 164.756 34.7959C163.174 33.2114 163.182 30.6455 164.778 29.0755L188.166 5.91016L193.889 11.6597Z" fill="white"/>
<path d="M193.89 11.6597L187.241 18.2451L182.815 11.209L188.167 5.91016L193.89 11.6597Z" fill="white"/>
<path d="M163.226 36.3073C162.825 35.9075 162.825 35.2534 163.233 34.8608L168.526 29.6201L169.977 31.0739L164.684 36.3146C164.283 36.7071 163.627 36.7071 163.226 36.3073Z" fill="white"/>
<path d="M169.977 31.0665L164.677 36.3072C164.276 36.707 163.627 36.6997 163.226 36.2999C162.825 35.9002 162.832 35.246 163.233 34.8462L164.123 33.9594L168.519 29.6055L169.977 31.0665Z" fill="white"/>
<path d="M195.604 12.8225L187.046 4.22949L182.98 8.25501L191.538 16.848L195.604 12.8225Z" fill="#FFC229"/>
<path d="M191.869 13.6511L186.146 7.90881L190.98 3.12601C192.569 1.54871 195.143 1.56324 196.718 3.14782C198.3 4.73239 198.285 7.29824 196.696 8.86828L191.869 13.6511Z" fill="#FFC229"/>
<path d="M179.191 26.2116L170.494 34.8177C169.152 36.1406 167.126 36.3441 165.58 35.4283L164.683 36.3223C164.282 36.7221 163.634 36.7148 163.233 36.3151C162.832 35.9153 162.839 35.2611 163.24 34.8613L164.129 33.9745C163.218 32.4263 163.437 30.4056 164.771 29.0754L167.702 26.168L179.191 26.2116Z" fill="#FFC229"/>
<path d="M58.1367 118.046V105.202L12.8194 105.202V118.046L58.1367 118.046Z" fill="white"/>
<path d="M56.7021 116.445V106.8H50.4324V116.445H56.7021Z" fill="#FFC229"/>
<path opacity="0.8" d="M49.1035 116.447V106.802H42.8338V116.447H49.1035Z" fill="#FFC229"/>
<path opacity="0.6" d="M41.5059 116.448V106.803H35.2361V116.448H41.5059Z" fill="#FFC229"/>
<path opacity="0.4" d="M33.9082 116.442V106.797H27.6384V116.442H33.9082Z" fill="#FFC229"/>
<path opacity="0.2" d="M26.3096 116.443L26.3096 106.798H20.0398V116.443H26.3096Z" fill="#FFC229"/>
<g opacity="0.2">
<path d="M56.7021 116.445V106.8H50.4324V116.445H56.7021Z" fill="black"/>
<path opacity="0.8" d="M49.1035 116.447V106.802H42.8338V116.447H49.1035Z" fill="black"/>
<path opacity="0.6" d="M41.5059 116.448V106.803H35.2361V116.448H41.5059Z" fill="black"/>
<path opacity="0.4" d="M33.9082 116.442V106.797H27.6384V116.442H33.9082Z" fill="black"/>
<path opacity="0.2" d="M26.3096 116.443L26.3096 106.798H20.0398V116.443H26.3096Z" fill="black"/>
</g>
<path d="M15.8937 112.44C15.4417 112.44 15.0771 112.076 15.0771 111.626C15.0771 111.175 15.4417 110.812 15.8937 110.812C16.3457 110.812 16.7102 111.175 16.7102 111.626C16.7102 112.076 16.3457 112.44 15.8937 112.44Z" fill="#263238"/>
<path d="M50.319 86.3807L41.21 77.2988L9.16609 109.247L18.2751 118.329L50.319 86.3807Z" fill="white"/>
<path d="M48.166 86.2618L41.3252 79.4414L36.8918 83.8615L43.7326 90.6819L48.166 86.2618Z" fill="#FFC229"/>
<path opacity="0.8" d="M42.7978 91.6231L35.957 84.8027L31.5237 89.2229L38.3644 96.0432L42.7978 91.6231Z" fill="#FFC229"/>
<path opacity="0.6" d="M37.4248 96.9805L30.584 90.1602L26.1506 94.5803L32.9914 101.401L37.4248 96.9805Z" fill="#FFC229"/>
<path opacity="0.4" d="M32.0517 102.337L25.2109 95.5166L20.7776 99.9367L27.6183 106.757L32.0517 102.337Z" fill="#FFC229"/>
<path opacity="0.2" d="M26.6787 107.693L19.8379 100.873L15.4045 105.293L22.2453 112.114L26.6787 107.693Z" fill="#FFC229"/>
<g opacity="0.1">
<path d="M48.166 86.2618L41.3252 79.4414L36.8918 83.8615L43.7326 90.6819L48.166 86.2618Z" fill="black"/>
<path opacity="0.8" d="M42.7978 91.6231L35.957 84.8027L31.5237 89.2229L38.3644 96.0432L42.7978 91.6231Z" fill="black"/>
<path opacity="0.6" d="M37.4248 96.9805L30.584 90.1602L26.1506 94.5803L32.9914 101.401L37.4248 96.9805Z" fill="black"/>
<path opacity="0.4" d="M32.0517 102.337L25.2109 95.5166L20.7776 99.9367L27.6183 106.757L32.0517 102.337Z" fill="black"/>
<path opacity="0.2" d="M26.6787 107.693L19.8379 100.873L15.4045 105.293L22.2453 112.114L26.6787 107.693Z" fill="black"/>
</g>
<path d="M16.4691 112.2C16.1483 112.52 15.6307 112.52 15.3099 112.2C14.9891 111.88 14.9891 111.364 15.3099 111.045C15.6307 110.725 16.1483 110.725 16.4691 111.045C16.7899 111.364 16.7899 111.88 16.4691 112.2Z" fill="#263238"/>
<path d="M22.3373 69.5039H9.45508V114.686H22.3373V69.5039Z" fill="white"/>
<path d="M20.7262 70.9355H11.0518V77.1866H20.7262V70.9355Z" fill="#FFC229"/>
<path opacity="0.8" d="M20.7262 78.5098H11.0518V84.7608H20.7262V78.5098Z" fill="#FFC229"/>
<path opacity="0.6" d="M20.7262 86.0908H11.0518V92.3419H20.7262V86.0908Z" fill="#FFC229"/>
<path opacity="0.4" d="M20.7262 93.665H11.0518V99.9161H20.7262V93.665Z" fill="#FFC229"/>
<path opacity="0.2" d="M20.7262 101.238H11.0518V107.489H20.7262V101.238Z" fill="#FFC229"/>
<path d="M17.2191 111.626C17.2191 112.353 16.6286 112.949 15.8923 112.949C15.156 112.949 14.5654 112.36 14.5654 111.626C14.5654 110.899 15.156 110.303 15.8923 110.303C16.6286 110.303 17.2191 110.892 17.2191 111.626Z" fill="#263238"/>
<path d="M291.668 122.15H261.165V83.1104H283.809L291.668 90.5462V122.15Z" fill="white"/>
<path d="M291.668 110.724H261.165V122.15H291.668V110.724Z" fill="white"/>
<path d="M261.165 110.725L270.81 101.508L279.559 110.725H261.165Z" fill="#FFC229"/>
<path d="M273.552 110.724L285.012 96.2881L291.668 104.669V110.724H273.552Z" fill="#FFC229"/>
<path d="M271.153 95.4305C271.153 97.3131 269.622 98.8395 267.734 98.8395C265.845 98.8395 264.314 97.3131 264.314 95.4305C264.314 93.5479 265.845 92.0215 267.734 92.0215C269.622 92.0215 271.153 93.5479 271.153 95.4305Z" fill="white"/>
<path d="M283.81 83.1104L291.669 90.5462H283.81V83.1104Z" fill="white"/>
<path d="M268.251 117.702C268.368 117.665 268.485 117.731 268.514 117.833C268.732 118.501 269.352 118.981 270.088 118.974C271 118.974 271.743 118.24 271.743 117.338V113.508C271.743 113.391 271.838 113.297 271.955 113.297C272.071 113.297 272.166 113.391 272.166 113.508V117.338C272.166 118.487 271.24 119.403 270.096 119.403C269.177 119.403 268.382 118.799 268.12 117.971C268.076 117.862 268.135 117.738 268.251 117.702Z" fill="#A6A6A6"/>
<path d="M273.813 113.514C273.813 113.398 273.908 113.304 274.025 113.304H274.054H275.76C276.722 113.304 277.502 114.089 277.502 115.048C277.502 116.008 276.722 116.785 275.76 116.785L274.244 116.8V119.199C274.244 119.315 274.149 119.409 274.025 119.409C273.908 119.409 273.813 119.315 273.813 119.199V113.514ZM275.753 116.371C276.482 116.364 277.072 115.768 277.072 115.048C277.072 114.321 276.474 113.733 275.753 113.733H274.236V116.371H275.753Z" fill="#A6A6A6"/>
<path d="M281.775 116.662C281.651 116.662 281.556 116.575 281.556 116.451C281.556 116.328 281.651 116.233 281.775 116.233H283.663H283.692C283.794 116.241 283.881 116.335 283.881 116.451V118.545V118.581C283.874 118.639 283.845 118.705 283.801 118.741C283.262 119.17 282.576 119.41 281.826 119.41C280.069 119.402 278.64 118.029 278.64 116.306C278.64 114.605 280.061 113.217 281.826 113.217C282.584 113.217 283.262 113.478 283.809 113.907C283.889 113.965 283.911 114.118 283.838 114.205C283.765 114.293 283.634 114.307 283.532 114.242C283.087 113.878 282.482 113.646 281.826 113.646C280.295 113.646 279.07 114.838 279.07 116.306C279.07 117.789 280.295 118.981 281.826 118.981C282.423 118.981 282.985 118.792 283.444 118.458V116.662H281.775Z" fill="#A6A6A6"/>
</g>
<defs>
<clipPath id="clip0_2_4250">
<rect width="301" height="288" fill="white"/>
</clipPath>
</defs>
</svg>
